<?xml version="1.0" encoding="UTF-8" standalone="no"?>
<!-- Created with Inkscape (http://www.inkscape.org/) -->

<svg
   xmlns:dc="http://purl.org/dc/elements/1.1/"
   xmlns:cc="http://creativecommons.org/ns#"
   xmlns:rdf="http://www.w3.org/1999/02/22-rdf-syntax-ns#"
   xmlns:svg="http://www.w3.org/2000/svg"
   xmlns="http://www.w3.org/2000/svg"
   xmlns:sodipodi="http://sodipodi.sourceforge.net/DTD/sodipodi-0.dtd"
   xmlns:inkscape="http://www.inkscape.org/namespaces/inkscape"
   width="744.09448819"
   height="1052.3622047"
   id="svg2"
   inkscape:label="Pozadí"
   version="1.1"
   inkscape:version="0.48.2 r9819"
   sodipodi:docname="ac-pole-clustering.svg">
  <defs
     id="defs3" />
  <sodipodi:namedview
     id="base"
     pagecolor="#ffffff"
     bordercolor="#666666"
     borderopacity="1.0"
     inkscape:pageopacity="0.0"
     inkscape:pageshadow="2"
     inkscape:zoom="0.70710678"
     inkscape:cx="470.99094"
     inkscape:cy="164.07843"
     inkscape:document-units="px"
     inkscape:current-layer="layer1"
     showgrid="false"
     inkscape:window-width="1280"
     inkscape:window-height="753"
     inkscape:window-x="-3"
     inkscape:window-y="0"
     inkscape:window-maximized="1" />
  <metadata
     id="metadata6">
    <rdf:RDF>
      <cc:Work
         rdf:about="">
        <dc:format>image/svg+xml</dc:format>
        <dc:type
           rdf:resource="http://purl.org/dc/dcmitype/StillImage" />
        <dc:title />
      </cc:Work>
    </rdf:RDF>
  </metadata>
  <g
     inkscape:label="Vrstva 1"
     inkscape:groupmode="layer"
     id="layer1">
    <path
       style="fill:#ff0000;fill-opacity:1;fill-rule:nonzero;stroke:#ff0000;stroke-width:1.01350987;stroke-miterlimit:4;stroke-opacity:1;stroke-dasharray:none"
       d="m 150.85788,877.31548 0,-24.04185 24.07676,0 24.07676,0 0,24.04185 0,24.04182 -24.07676,0 -24.07676,0 0,-24.04182 z"
       id="path4842"
       inkscape:connector-curvature="0" />
    <path
       style="fill:#0066ff;fill-opacity:1;fill-rule:nonzero;stroke:#0066ff;stroke-width:0.70710677000000000;stroke-miterlimit:4;stroke-opacity:1;stroke-dasharray:none"
       d="m 150.83475,926.77809 0,-23.33452 24.04163,0 24.04163,0 0,23.33452 0,23.33453 -24.04163,0 -24.04163,0 0,-23.33453 z"
       id="path5626"
       inkscape:connector-curvature="0" />
    <path
       style="fill:#0066ff;fill-opacity:1;fill-rule:nonzero;stroke:#0066ff;stroke-width:0.70710677;stroke-miterlimit:4;stroke-opacity:1;stroke-dasharray:none"
       d="m 100.63017,926.56596 0,-23.33452 24.39518,0 24.39518,0 0,23.33452 0,23.33453 -24.39518,0 -24.39518,0 0,-23.33453 z"
       id="path5628"
       inkscape:connector-curvature="0" />
    <path
       style="fill:#0066ff;fill-opacity:1;fill-rule:nonzero;stroke:#0066ff;stroke-width:0.70710677;stroke-miterlimit:4;stroke-opacity:1;stroke-dasharray:none"
       d="m 100.63017,877.28062 0,-24.04163 24.39518,0 24.39518,0 0,24.04163 0,24.04163 -24.39518,0 -24.39518,0 0,-24.04163 z"
       id="path5630"
       inkscape:connector-curvature="0" />
    <path
       style="fill:#0066ff;fill-opacity:1;fill-rule:nonzero;stroke:#0066ff;stroke-width:0.70710677;stroke-miterlimit:4;stroke-opacity:1;stroke-dasharray:none"
       d="m 100.63017,827.42959 0,-24.39518 24.39518,0 24.39518,0 0,24.39518 0,24.39519 -24.39518,0 -24.39518,0 0,-24.39519 z"
       id="path5632"
       inkscape:connector-curvature="0" />
    <path
       style="fill:#0066ff;fill-opacity:1;fill-rule:nonzero;stroke:#0066ff;stroke-width:0.70710677;stroke-miterlimit:4;stroke-opacity:1;stroke-dasharray:none"
       d="m 150.83475,827.42959 0,-24.39518 24.04163,0 24.04163,0 0,24.39518 0,24.39519 -24.04163,0 -24.04163,0 0,-24.39519 z"
       id="path5634"
       inkscape:connector-curvature="0" />
    <path
       style="fill:#0066ff;fill-opacity:1;fill-rule:nonzero;stroke:#0066ff;stroke-width:0.70710677;stroke-miterlimit:4;stroke-opacity:1;stroke-dasharray:none"
       d="m 201.03933,827.42959 0,-24.39518 24.04163,0 24.04163,0 0,24.39518 0,24.39519 -24.04163,0 -24.04163,0 0,-24.39519 z"
       id="path5636"
       inkscape:connector-curvature="0" />
    <path
       style="fill:#0066ff;fill-opacity:1;fill-rule:nonzero;stroke:#0066ff;stroke-width:0.70710677;stroke-miterlimit:4;stroke-opacity:1;stroke-dasharray:none"
       d="m 201.03933,877.28062 0,-24.04163 24.04163,0 24.04163,0 0,24.04163 0,24.04163 -24.04163,0 -24.04163,0 0,-24.04163 z"
       id="path5638"
       inkscape:connector-curvature="0" />
    <path
       style="fill:#0066ff;fill-opacity:1;fill-rule:nonzero;stroke:#0066ff;stroke-width:0.70710677;stroke-miterlimit:4;stroke-opacity:1;stroke-dasharray:none"
       d="m 201.03933,926.77809 0,-23.33452 24.04163,0 24.04163,0 0,23.33452 0,23.33453 -24.04163,0 -24.04163,0 0,-23.33453 z"
       id="path5640"
       inkscape:connector-curvature="0" />
    <path
       style="fill:#ffcc00;fill-opacity:1;fill-rule:nonzero;stroke:#ffcc00;stroke-width:0.70648402;stroke-miterlimit:4;stroke-opacity:1;stroke-dasharray:none"
       d="m 201.03933,976.58493 0,-25.0581 24.04163,0 24.04163,0 0,25.0581 0,25.05807 -24.04163,0 -24.04163,0 0,-25.05807 z"
       id="path5642"
       inkscape:connector-curvature="0" />
    <path
       style="fill:#ffcc00;fill-opacity:1;fill-rule:nonzero;stroke:#ffcc00;stroke-width:0.70693988;stroke-miterlimit:4;stroke-opacity:1;stroke-dasharray:none"
       d="m 250.5368,976.61727 0,-25.09044 24.39519,0 24.39518,0 0,25.09044 0,25.09043 -24.39518,0 -24.39519,0 0,-25.09043 z"
       id="path5644"
       inkscape:connector-curvature="0" />
    <path
       style="fill:#ffcc00;fill-opacity:1;fill-rule:nonzero;stroke:#ffcc00;stroke-width:0.70710677;stroke-miterlimit:4;stroke-opacity:1;stroke-dasharray:none"
       d="m 250.5368,926.77809 0,-23.33452 24.39519,0 24.39518,0 0,23.33452 0,23.33453 -24.39518,0 -24.39519,0 0,-23.33453 z"
       id="path5646"
       inkscape:connector-curvature="0" />
    <path
       style="fill:#ffcc00;fill-opacity:1;fill-rule:nonzero;stroke:#ffcc00;stroke-width:0.70710677;stroke-miterlimit:4;stroke-opacity:1;stroke-dasharray:none"
       d="m 250.5368,877.28062 0,-24.04163 24.39519,0 24.39518,0 0,24.04163 0,24.04163 -24.39518,0 -24.39519,0 0,-24.04163 z"
       id="path5648"
       inkscape:connector-curvature="0" />
    <path
       style="fill:#ffcc00;fill-opacity:1;fill-rule:nonzero;stroke:#ffcc00;stroke-width:0.70710677;stroke-miterlimit:4;stroke-opacity:1;stroke-dasharray:none"
       d="m 250.5368,827.42959 0,-24.39518 24.39519,0 24.39518,0 0,24.39518 0,24.39519 -24.39518,0 -24.39519,0 0,-24.39519 z"
       id="path5650"
       inkscape:connector-curvature="0" />
    <path
       style="fill:#ffcc00;fill-opacity:1;fill-rule:nonzero;stroke:#ffcc00;stroke-width:0.70710677;stroke-miterlimit:4;stroke-opacity:1;stroke-dasharray:none"
       d="m 250.5368,777.57856 0,-24.04163 24.39519,0 24.39518,0 0,24.04163 0,24.04163 -24.39518,0 -24.39519,0 0,-24.04163 z"
       id="path5652"
       inkscape:connector-curvature="0" />
    <path
       style="fill:#ffcc00;fill-opacity:1;fill-rule:nonzero;stroke:#ffcc00;stroke-width:0.70710677;stroke-miterlimit:4;stroke-opacity:1;stroke-dasharray:none"
       d="m 201.03933,777.57856 0,-24.04163 24.04163,0 24.04163,0 0,24.04163 0,24.04163 -24.04163,0 -24.04163,0 0,-24.04163 z"
       id="path5654"
       inkscape:connector-curvature="0" />
    <path
       style="fill:#ffcc00;fill-opacity:1;fill-rule:nonzero;stroke:#ffcc00;stroke-width:0.70710677;stroke-miterlimit:4;stroke-opacity:1;stroke-dasharray:none"
       d="m 150.83475,777.57856 0,-24.04163 24.04163,0 24.04163,0 0,24.04163 0,24.04163 -24.04163,0 -24.04163,0 0,-24.04163 z"
       id="path5656"
       inkscape:connector-curvature="0" />
    <path
       style="fill:#ffcc00;fill-opacity:1;fill-rule:nonzero;stroke:#ffcc00;stroke-width:0.70710677;stroke-miterlimit:4;stroke-opacity:1;stroke-dasharray:none"
       d="m 100.63017,777.57856 0,-24.04163 24.39518,0 24.39518,0 0,24.04163 0,24.04163 -24.39518,0 -24.39518,0 0,-24.04163 z"
       id="path5658"
       inkscape:connector-curvature="0" />
    <path
       style="fill:#ffcc00;fill-opacity:1;fill-rule:nonzero;stroke:#ffcc00;stroke-width:0.70710677;stroke-miterlimit:4;stroke-opacity:1;stroke-dasharray:none"
       d="m 51.132691,777.57856 0,-24.04163 24.04163,0 24.041631,0 0,24.04163 0,24.04163 -24.041631,0 -24.04163,0 0,-24.04163 z"
       id="path5660"
       inkscape:connector-curvature="0" />
    <path
       style="fill:#ffcc00;fill-opacity:1;fill-rule:nonzero;stroke:#ffcc00;stroke-width:0.70710677;stroke-miterlimit:4;stroke-opacity:1;stroke-dasharray:none"
       d="m 51.132691,827.42959 0,-24.39518 24.04163,0 24.041631,0 0,24.39518 0,24.39519 -24.041631,0 -24.04163,0 0,-24.39519 z"
       id="path5662"
       inkscape:connector-curvature="0" />
    <path
       style="fill:#ffcc00;fill-opacity:1;fill-rule:nonzero;stroke:#ffcc00;stroke-width:0.70710677;stroke-miterlimit:4;stroke-opacity:1;stroke-dasharray:none"
       d="m 51.132691,877.28062 0,-24.04163 24.04163,0 24.041631,0 0,24.04163 0,24.04163 -24.041631,0 -24.04163,0 0,-24.04163 z"
       id="path5664"
       inkscape:connector-curvature="0" />
    <path
       style="fill:#ffcc00;fill-opacity:1;fill-rule:nonzero;stroke:#ffcc00;stroke-width:0.70710677;stroke-miterlimit:4;stroke-opacity:1;stroke-dasharray:none"
       d="m 51.132691,926.77809 0,-23.33452 24.04163,0 24.041631,0 0,23.33452 0,23.33453 -24.041631,0 -24.04163,0 0,-23.33453 z"
       id="path5666"
       inkscape:connector-curvature="0" />
    <path
       style="fill:#ffcc00;fill-opacity:1;fill-rule:nonzero;stroke:#ffcc00;stroke-width:0.70577049;stroke-miterlimit:4;stroke-opacity:1;stroke-dasharray:none"
       d="m 51.132691,976.53433 0,-25.0075 24.04163,0 24.041631,0 0,25.0075 0,25.00747 -24.041631,0 -24.04163,0 0,-25.00747 z"
       id="path5668"
       inkscape:connector-curvature="0" />
    <path
       style="fill:#ffcc00;fill-opacity:1;fill-rule:nonzero;stroke:#ffcc00;stroke-width:0.70586079;stroke-miterlimit:4;stroke-opacity:1;stroke-dasharray:none"
       d="m 100.63017,976.54073 0,-25.0139 24.39518,0 24.39518,0 0,25.0139 0,25.01387 -24.39518,0 -24.39518,0 0,-25.01387 z"
       id="path5670"
       inkscape:connector-curvature="0" />
    <path
       style="fill:#ffcc00;fill-opacity:1;fill-rule:nonzero;stroke:#ffcc00;stroke-width:0.70701653;stroke-miterlimit:4;stroke-opacity:1;stroke-dasharray:none"
       d="m 150.83475,976.62271 0,-25.09588 24.04163,0 24.04163,0 0,25.09588 0,25.09589 -24.04163,0 -24.04163,0 0,-25.09589 z"
       id="path5672"
       inkscape:connector-curvature="0" />
    <path
       style="fill:#ff0000;fill-opacity:1;fill-rule:nonzero;stroke:#ff0000;stroke-width:0.51570678;stroke-miterlimit:4;stroke-opacity:1;stroke-dasharray:none"
       d="m 400.25785,727.36218 0,-12.24215 12.24215,0 12.24215,0 0,12.24215 0,12.24215 -12.24215,0 -12.24215,0 0,-12.24215 z"
       id="path4842-5"
       inkscape:connector-curvature="0" />
    <path
       style="fill:#0066ff;fill-opacity:1;fill-rule:nonzero;stroke:#0066ff;stroke-width:0.36231887;stroke-miterlimit:4;stroke-opacity:1;stroke-dasharray:none"
       d="m 400.18116,777.86218 0,-12.31884 12.31884,0 12.31884,0 0,12.31884 0,12.31884 -12.31884,0 -12.31884,0 0,-12.31884 z"
       id="path5638-0"
       inkscape:connector-curvature="0" />
    <path
       style="fill:#ffcc00;fill-opacity:1;fill-rule:nonzero;stroke:#ffcc00;stroke-width:0.36505228;stroke-miterlimit:4;stroke-opacity:1;stroke-dasharray:none"
       d="m 451.18253,827.86218 0,-12.31747 12.31748,0 12.31747,0 0,12.31747 0,12.31748 -12.31747,0 -12.31748,0 0,-12.31748 z"
       id="path5646-2"
       inkscape:connector-curvature="0" />
    <text
       xml:space="preserve"
       style="font-size:16px;font-style:normal;font-weight:normal;line-height:125%;letter-spacing:0px;word-spacing:0px;fill:#000000;fill-opacity:1;stroke:none;font-family:Bitstream Vera Sans"
       x="438.82812"
       y="731.77246"
       id="text5728"
       sodipodi:linespacing="125%"><tspan
         sodipodi:role="line"
         id="tspan5730"
         x="438.82812"
         y="731.77246">Buňka s největším počtem bodů</tspan></text>
    <text
       xml:space="preserve"
       style="font-size:16px;font-style:normal;font-weight:normal;line-height:125%;letter-spacing:0px;word-spacing:0px;fill:#000000;fill-opacity:1;stroke:none;font-family:Bitstream Vera Sans"
       x="438.25781"
       y="782.95447"
       id="text5732"
       sodipodi:linespacing="125%"><tspan
         sodipodi:role="line"
         id="tspan5734"
         x="438.25781"
         y="782.95447">1. iterace</tspan></text>
    <text
       xml:space="preserve"
       style="font-size:16px;font-style:normal;font-weight:normal;line-height:125%;letter-spacing:0px;word-spacing:0px;fill:#000000;fill-opacity:1;stroke:none;font-family:Bitstream Vera Sans"
       x="491.03125"
       y="833.86615"
       id="text5736"
       sodipodi:linespacing="125%"><tspan
         sodipodi:role="line"
         id="tspan5738"
         x="491.03125"
         y="833.86615">2. iterace</tspan></text>
    <path
       style="fill:none;stroke:#000000;stroke-width:2;stroke-linecap:butt;stroke-linejoin:miter;stroke-opacity:1;stroke-miterlimit:4;stroke-dasharray:none"
       d="m 150.00765,702.34433 0,350.01787"
       id="path4834"
       inkscape:connector-curvature="0" />
    <path
       style="fill:none;stroke:#000000;stroke-width:2;stroke-linecap:butt;stroke-linejoin:miter;stroke-opacity:1;stroke-miterlimit:4;stroke-dasharray:none"
       d="m 200.0102,702.34433 0,350.01787"
       id="path4836"
       inkscape:connector-curvature="0" />
    <path
       style="fill:none;stroke:#000000;stroke-width:2;stroke-linecap:butt;stroke-linejoin:miter;stroke-opacity:1;stroke-miterlimit:4;stroke-dasharray:none"
       d="m 250.01276,1052.3622 0,-350.01787"
       id="path4838"
       inkscape:connector-curvature="0" />
    <path
       style="fill:#ff0000;stroke:#000000;stroke-width:2;stroke-linecap:butt;stroke-linejoin:miter;stroke-opacity:1;stroke-miterlimit:4;stroke-dasharray:none"
       d="m 300.01531,702.34433 0,350.52297"
       id="path4840"
       inkscape:connector-curvature="0" />
    <path
       style="fill:none;stroke:#000000;stroke-width:2;stroke-linecap:butt;stroke-linejoin:miter;stroke-opacity:1;stroke-miterlimit:4;stroke-dasharray:none"
       d="m 100.0051,1052.3622 0,-350.01787"
       id="path4832"
       inkscape:connector-curvature="0" />
    <path
       style="fill:none;stroke:#000000;stroke-width:2;stroke-linecap:butt;stroke-linejoin:miter;stroke-opacity:1;stroke-miterlimit:4;stroke-dasharray:none"
       d="M 50,702.36218 50,1052.005"
       id="path4830"
       inkscape:connector-curvature="0" />
    <path
       style="fill:none;stroke:#000000;stroke-width:2;stroke-linecap:butt;stroke-linejoin:miter;stroke-opacity:1;stroke-miterlimit:4;stroke-dasharray:none"
       d="m 0,902.36218 350,0"
       id="path3037"
       inkscape:connector-curvature="0" />
    <path
       style="fill:none;stroke:#000000;stroke-width:2;stroke-linecap:butt;stroke-linejoin:miter;stroke-opacity:1;stroke-miterlimit:4;stroke-dasharray:none"
       d="m 350,852.36218 -350,0"
       id="path3039"
       inkscape:connector-curvature="0" />
    <path
       style="fill:none;stroke:#000000;stroke-width:2;stroke-linecap:butt;stroke-linejoin:miter;stroke-opacity:1;stroke-miterlimit:4;stroke-dasharray:none"
       d="m 0,802.36218 350,0"
       id="path3041"
       inkscape:connector-curvature="0" />
    <path
       style="fill:none;stroke:#000000;stroke-width:2;stroke-linecap:butt;stroke-linejoin:miter;stroke-opacity:1;stroke-miterlimit:4;stroke-dasharray:none"
       d="m 0,752.36218 350,0"
       id="path4826"
       inkscape:connector-curvature="0" />
    <path
       style="fill:none;stroke:#000000;stroke-width:2;stroke-linecap:butt;stroke-linejoin:miter;stroke-opacity:1;stroke-miterlimit:4;stroke-dasharray:none"
       d="m 0,1052.3622 350.71429,0 0,-350.00002 -350.71429,0 z"
       id="path2990"
       inkscape:connector-curvature="0" />
    <path
       style="fill:none;stroke:#000000;stroke-width:2;stroke-linecap:butt;stroke-linejoin:miter;stroke-opacity:1;stroke-miterlimit:4;stroke-dasharray:none"
       d="m 0,1002.3622 350,0"
       id="path2992"
       inkscape:connector-curvature="0" />
    <path
       style="fill:none;stroke:#000000;stroke-width:2;stroke-linecap:butt;stroke-linejoin:miter;stroke-opacity:1;stroke-miterlimit:4;stroke-dasharray:none"
       d="M 1.8467264e-7,950.93361 350,950.93361"
       id="path2992-1"
       inkscape:connector-curvature="0" />
    <path
       style="fill:#0066ff;fill-opacity:1;fill-rule:nonzero;stroke:#0066ff;stroke-width:0.36231887;stroke-miterlimit:4;stroke-opacity:1;stroke-dasharray:none"
       d="m 400.18116,827.86218 0,-12.31884 12.31884,0 12.31884,0 0,12.31884 0,12.31884 -12.31884,0 -12.31884,0 0,-12.31884 z"
       id="path5638-0-6"
       inkscape:connector-curvature="0" />
    <text
       xml:space="preserve"
       style="font-size:16px;font-style:normal;font-weight:normal;line-height:125%;letter-spacing:0px;word-spacing:0px;fill:#000000;fill-opacity:1;stroke:none;font-family:Bitstream Vera Sans"
       x="433.5"
       y="835.11218"
       id="text3065"
       sodipodi:linespacing="125%"><tspan
         sodipodi:role="line"
         id="tspan3067"
         x="433.5"
         y="835.11218">+</tspan></text>
  </g>
</svg>
