<?xml version="1.0" encoding="UTF-8" standalone="no"?>
<!-- Created with Inkscape (http://www.inkscape.org/) -->

<svg
   xmlns:dc="http://purl.org/dc/elements/1.1/"
   xmlns:cc="http://creativecommons.org/ns#"
   xmlns:rdf="http://www.w3.org/1999/02/22-rdf-syntax-ns#"
   xmlns:svg="http://www.w3.org/2000/svg"
   xmlns="http://www.w3.org/2000/svg"
   xmlns:sodipodi="http://sodipodi.sourceforge.net/DTD/sodipodi-0.dtd"
   xmlns:inkscape="http://www.inkscape.org/namespaces/inkscape"
   width="744.09448819"
   height="1052.3622047"
   id="svg2"
   inkscape:label="Pozadí"
   version="1.1"
   inkscape:version="0.48.2 r9819"
   sodipodi:docname="Nový dokument 1">
  <defs
     id="defs3" />
  <sodipodi:namedview
     id="base"
     pagecolor="#ffffff"
     bordercolor="#666666"
     borderopacity="1.0"
     inkscape:pageopacity="0.0"
     inkscape:pageshadow="2"
     inkscape:zoom="0.49497475"
     inkscape:cx="354.93251"
     inkscape:cy="519.20091"
     inkscape:document-units="px"
     inkscape:current-layer="layer1"
     showgrid="false"
     inkscape:window-width="1280"
     inkscape:window-height="753"
     inkscape:window-x="-3"
     inkscape:window-y="0"
     inkscape:window-maximized="1" />
  <metadata
     id="metadata6">
    <rdf:RDF>
      <cc:Work
         rdf:about="">
        <dc:format>image/svg+xml</dc:format>
        <dc:type
           rdf:resource="http://purl.org/dc/dcmitype/StillImage" />
        <dc:title></dc:title>
      </cc:Work>
    </rdf:RDF>
  </metadata>
  <g
     inkscape:label="Vrstva 1"
     inkscape:groupmode="layer"
     id="layer1">
    <path
       style="fill:none;stroke:#000000;stroke-width:1px;stroke-linecap:butt;stroke-linejoin:miter;stroke-opacity:1"
       d="M 501.42857,382.36218 485,368.79075 l 23.57143,-19.28571 15.71428,14.28571"
       id="path3819"
       inkscape:connector-curvature="0" />
    <path
       style="fill:none;stroke:#000000;stroke-width:1px;stroke-linecap:butt;stroke-linejoin:miter;stroke-opacity:1"
       d="M 300.71428,443.79075 481.42857,332.36218 505,348.79075 312.85714,466.64789 z"
       id="path3841-7"
       inkscape:connector-curvature="0"
       sodipodi:nodetypes="ccccc" />
    <path
       style="fill:none;stroke:#000000;stroke-width:1px;stroke-linecap:butt;stroke-linejoin:miter;stroke-opacity:1"
       d="m 361.78572,500.93362 -16.42857,-13.57143 23.57143,-19.28571 15.71428,14.28571"
       id="path3819-8"
       inkscape:connector-curvature="0" />
    <path
       style="fill:none;stroke:#000000;stroke-width:1px;stroke-linecap:butt;stroke-linejoin:miter;stroke-opacity:1"
       d="M 161.07143,562.36219 341.78572,450.93362 365.35715,467.36219 173.21429,585.21933 z"
       id="path3841-7-5"
       inkscape:connector-curvature="0"
       sodipodi:nodetypes="ccccc" />
    <path
       style="fill:none;stroke:#000000;stroke-width:1px;stroke-linecap:butt;stroke-linejoin:miter;stroke-opacity:1"
       d="m 230.35715,614.50504 -16.42857,-13.57143 23.57143,-19.28571 15.71428,14.28571"
       id="path3819-0"
       inkscape:connector-curvature="0" />
    <path
       style="fill:none;stroke:#000000;stroke-width:1px;stroke-linecap:butt;stroke-linejoin:miter;stroke-opacity:1"
       d="M 29.642857,675.93361 210.35715,564.50504 233.92858,580.93361 41.785717,698.79075 z"
       id="path3841-7-9"
       inkscape:connector-curvature="0"
       sodipodi:nodetypes="ccccc" />
    <path
       style="fill:none;stroke:#000000;stroke-width:1px;stroke-linecap:butt;stroke-linejoin:miter;stroke-opacity:1"
       d="M 634.64286,268.07647 618.21429,254.50504 641.78572,235.21933 657.5,249.50504"
       id="path3819-6"
       inkscape:connector-curvature="0" />
    <path
       style="fill:none;stroke:#000000;stroke-width:1px;stroke-linecap:butt;stroke-linejoin:miter;stroke-opacity:1"
       d="M 433.92857,329.50504 614.64286,218.07647 638.21429,234.50504 446.07143,352.36218 z"
       id="path3841-7-4"
       inkscape:connector-curvature="0"
       sodipodi:nodetypes="ccccc" />
    <path
       style="fill:none;stroke:#000000;stroke-width:1px;stroke-linecap:butt;stroke-linejoin:miter;stroke-opacity:1"
       d="M 717.2083,199.79343 22.223356,789.72252"
       id="path3900"
       inkscape:connector-curvature="0" />
    <path
       sodipodi:type="arc"
       style="fill:#000000;fill-opacity:1;fill-rule:nonzero;stroke:#000000;stroke-width:1;stroke-miterlimit:4;stroke-opacity:1;stroke-dasharray:none"
       id="path2986-0"
       sodipodi:cx="149.50258"
       sodipodi:cy="379.60059"
       sodipodi:rx="5.0507627"
       sodipodi:ry="5.0507627"
       d="m 154.55334,379.60059 a 5.0507627,5.0507627 0 1 1 -10.10152,0 5.0507627,5.0507627 0 1 1 10.10152,0 z"
       transform="matrix(0.53238298,0,0,0.53238298,353.26452,126.34072)" />
    <path
       sodipodi:type="arc"
       style="fill:#000000;fill-opacity:1;fill-rule:nonzero;stroke:#000000;stroke-width:1;stroke-miterlimit:4;stroke-opacity:1;stroke-dasharray:none"
       id="path2986-9"
       sodipodi:cx="149.50258"
       sodipodi:cy="379.60059"
       sodipodi:rx="5.0507627"
       sodipodi:ry="5.0507627"
       d="m 154.55334,379.60059 a 5.0507627,5.0507627 0 1 1 -10.10152,0 5.0507627,5.0507627 0 1 1 10.10152,0 z"
       transform="matrix(0.53238298,0,0,0.53238298,355.76452,136.34072)" />
    <path
       sodipodi:type="arc"
       style="fill:#000000;fill-opacity:1;fill-rule:nonzero;stroke:#000000;stroke-width:1;stroke-miterlimit:4;stroke-opacity:1;stroke-dasharray:none"
       id="path2986-1"
       sodipodi:cx="149.50258"
       sodipodi:cy="379.60059"
       sodipodi:rx="5.0507627"
       sodipodi:ry="5.0507627"
       d="m 154.55334,379.60059 a 5.0507627,5.0507627 0 1 1 -10.10152,0 5.0507627,5.0507627 0 1 1 10.10152,0 z"
       transform="matrix(0.53238298,0,0,0.53238298,363.9788,142.055)" />
    <path
       sodipodi:type="arc"
       style="fill:#000000;fill-opacity:1;fill-rule:nonzero;stroke:#000000;stroke-width:1;stroke-miterlimit:4;stroke-opacity:1;stroke-dasharray:none"
       id="path2986-7"
       sodipodi:cx="149.50258"
       sodipodi:cy="379.60059"
       sodipodi:rx="5.0507627"
       sodipodi:ry="5.0507627"
       d="m 154.55334,379.60059 a 5.0507627,5.0507627 0 1 1 -10.10152,0 5.0507627,5.0507627 0 1 1 10.10152,0 z"
       transform="matrix(0.53238298,0,0,0.53238298,363.62166,152.055)" />
    <path
       sodipodi:type="arc"
       style="fill:#000000;fill-opacity:1;fill-rule:nonzero;stroke:#000000;stroke-width:1;stroke-miterlimit:4;stroke-opacity:1;stroke-dasharray:none"
       id="path2986-6"
       sodipodi:cx="149.50258"
       sodipodi:cy="379.60059"
       sodipodi:rx="5.0507627"
       sodipodi:ry="5.0507627"
       d="m 154.55334,379.60059 a 5.0507627,5.0507627 0 1 1 -10.10152,0 5.0507627,5.0507627 0 1 1 10.10152,0 z"
       transform="matrix(0.53238298,0,0,0.53238298,364.33594,124.19786)" />
    <path
       sodipodi:type="arc"
       style="fill:#000000;fill-opacity:1;fill-rule:nonzero;stroke:#000000;stroke-width:1;stroke-miterlimit:4;stroke-opacity:1;stroke-dasharray:none"
       id="path2986-3"
       sodipodi:cx="149.50258"
       sodipodi:cy="379.60059"
       sodipodi:rx="5.0507627"
       sodipodi:ry="5.0507627"
       d="m 154.55334,379.60059 a 5.0507627,5.0507627 0 1 1 -10.10152,0 5.0507627,5.0507627 0 1 1 10.10152,0 z"
       transform="matrix(0.53238298,0,0,0.53238298,369.69309,114.555)" />
    <path
       sodipodi:type="arc"
       style="fill:#000000;fill-opacity:1;fill-rule:nonzero;stroke:#000000;stroke-width:1;stroke-miterlimit:4;stroke-opacity:1;stroke-dasharray:none"
       id="path2986-95"
       sodipodi:cx="149.50258"
       sodipodi:cy="379.60059"
       sodipodi:rx="5.0507627"
       sodipodi:ry="5.0507627"
       d="m 154.55334,379.60059 a 5.0507627,5.0507627 0 1 1 -10.10152,0 5.0507627,5.0507627 0 1 1 10.10152,0 z"
       transform="matrix(0.53238298,0,0,0.53238298,382.55023,112.055)" />
    <path
       sodipodi:type="arc"
       style="fill:#000000;fill-opacity:1;fill-rule:nonzero;stroke:#000000;stroke-width:1;stroke-miterlimit:4;stroke-opacity:1;stroke-dasharray:none"
       id="path2986-2"
       sodipodi:cx="149.50258"
       sodipodi:cy="379.60059"
       sodipodi:rx="5.0507627"
       sodipodi:ry="5.0507627"
       d="m 154.55334,379.60059 a 5.0507627,5.0507627 0 1 1 -10.10152,0 5.0507627,5.0507627 0 1 1 10.10152,0 z"
       transform="matrix(0.53238298,0,0,0.53238298,393.26452,105.26929)" />
    <path
       sodipodi:type="arc"
       style="fill:#000000;fill-opacity:1;fill-rule:nonzero;stroke:#000000;stroke-width:1;stroke-miterlimit:4;stroke-opacity:1;stroke-dasharray:none"
       id="path2986-28"
       sodipodi:cx="149.50258"
       sodipodi:cy="379.60059"
       sodipodi:rx="5.0507627"
       sodipodi:ry="5.0507627"
       d="m 154.55334,379.60059 a 5.0507627,5.0507627 0 1 1 -10.10152,0 5.0507627,5.0507627 0 1 1 10.10152,0 z"
       transform="matrix(0.53238298,0,0,0.53238298,403.62166,96.340719)" />
    <path
       sodipodi:type="arc"
       style="fill:#000000;fill-opacity:1;fill-rule:nonzero;stroke:#000000;stroke-width:1;stroke-miterlimit:4;stroke-opacity:1;stroke-dasharray:none"
       id="path2986-96"
       sodipodi:cx="149.50258"
       sodipodi:cy="379.60059"
       sodipodi:rx="5.0507627"
       sodipodi:ry="5.0507627"
       d="m 154.55334,379.60059 a 5.0507627,5.0507627 0 1 1 -10.10152,0 5.0507627,5.0507627 0 1 1 10.10152,0 z"
       transform="matrix(0.53238298,0,0,0.53238298,414.69309,87.055005)" />
    <path
       sodipodi:type="arc"
       style="fill:#000000;fill-opacity:1;fill-rule:nonzero;stroke:#000000;stroke-width:1;stroke-miterlimit:4;stroke-opacity:1;stroke-dasharray:none"
       id="path2986-72"
       sodipodi:cx="149.50258"
       sodipodi:cy="379.60059"
       sodipodi:rx="5.0507627"
       sodipodi:ry="5.0507627"
       d="m 154.55334,379.60059 a 5.0507627,5.0507627 0 1 1 -10.10152,0 5.0507627,5.0507627 0 1 1 10.10152,0 z"
       transform="matrix(0.53238298,0,0,0.53238298,426.4788,83.126433)" />
    <path
       sodipodi:type="arc"
       style="fill:#000000;fill-opacity:1;fill-rule:nonzero;stroke:#000000;stroke-width:1;stroke-miterlimit:4;stroke-opacity:1;stroke-dasharray:none"
       id="path2986-62"
       sodipodi:cx="149.50258"
       sodipodi:cy="379.60059"
       sodipodi:rx="5.0507627"
       sodipodi:ry="5.0507627"
       d="m 154.55334,379.60059 a 5.0507627,5.0507627 0 1 1 -10.10152,0 5.0507627,5.0507627 0 1 1 10.10152,0 z"
       transform="matrix(0.53238298,0,0,0.53238298,437.55023,73.840719)" />
    <path
       sodipodi:type="arc"
       style="fill:#000000;fill-opacity:1;fill-rule:nonzero;stroke:#000000;stroke-width:1;stroke-miterlimit:4;stroke-opacity:1;stroke-dasharray:none"
       id="path2986-01"
       sodipodi:cx="149.50258"
       sodipodi:cy="379.60059"
       sodipodi:rx="5.0507627"
       sodipodi:ry="5.0507627"
       d="m 154.55334,379.60059 a 5.0507627,5.0507627 0 1 1 -10.10152,0 5.0507627,5.0507627 0 1 1 10.10152,0 z"
       transform="matrix(0.53238298,0,0,0.53238298,447.90737,65.983576)" />
    <path
       sodipodi:type="arc"
       style="fill:#000000;fill-opacity:1;fill-rule:nonzero;stroke:#000000;stroke-width:1;stroke-miterlimit:4;stroke-opacity:1;stroke-dasharray:none"
       id="path2986-4"
       sodipodi:cx="149.50258"
       sodipodi:cy="379.60059"
       sodipodi:rx="5.0507627"
       sodipodi:ry="5.0507627"
       d="m 154.55334,379.60059 a 5.0507627,5.0507627 0 1 1 -10.10152,0 5.0507627,5.0507627 0 1 1 10.10152,0 z"
       transform="matrix(0.53238298,0,0,0.53238298,457.90737,63.126433)" />
    <path
       sodipodi:type="arc"
       style="fill:#000000;fill-opacity:1;fill-rule:nonzero;stroke:#000000;stroke-width:1;stroke-miterlimit:4;stroke-opacity:1;stroke-dasharray:none"
       id="path2986-37"
       sodipodi:cx="149.50258"
       sodipodi:cy="379.60059"
       sodipodi:rx="5.0507627"
       sodipodi:ry="5.0507627"
       d="m 154.55334,379.60059 a 5.0507627,5.0507627 0 1 1 -10.10152,0 5.0507627,5.0507627 0 1 1 10.10152,0 z"
       transform="matrix(0.53238298,0,0,0.53238298,468.62166,54.912147)" />
    <path
       sodipodi:type="arc"
       style="fill:#000000;fill-opacity:1;fill-rule:nonzero;stroke:#000000;stroke-width:1;stroke-miterlimit:4;stroke-opacity:1;stroke-dasharray:none"
       id="path2986-27"
       sodipodi:cx="149.50258"
       sodipodi:cy="379.60059"
       sodipodi:rx="5.0507627"
       sodipodi:ry="5.0507627"
       d="m 154.55334,379.60059 a 5.0507627,5.0507627 0 1 1 -10.10152,0 5.0507627,5.0507627 0 1 1 10.10152,0 z"
       transform="matrix(0.53238298,0,0,0.53238298,480.05023,48.483576)" />
    <path
       sodipodi:type="arc"
       style="fill:#000000;fill-opacity:1;fill-rule:nonzero;stroke:#000000;stroke-width:1;stroke-miterlimit:4;stroke-opacity:1;stroke-dasharray:none"
       id="path2986-40"
       sodipodi:cx="149.50258"
       sodipodi:cy="379.60059"
       sodipodi:rx="5.0507627"
       sodipodi:ry="5.0507627"
       d="m 154.55334,379.60059 a 5.0507627,5.0507627 0 1 1 -10.10152,0 5.0507627,5.0507627 0 1 1 10.10152,0 z"
       transform="matrix(0.53238298,0,0,0.53238298,495.05023,42.76929)" />
    <path
       sodipodi:type="arc"
       style="fill:#000000;fill-opacity:1;fill-rule:nonzero;stroke:#000000;stroke-width:1;stroke-miterlimit:4;stroke-opacity:1;stroke-dasharray:none"
       id="path2986-47"
       sodipodi:cx="149.50258"
       sodipodi:cy="379.60059"
       sodipodi:rx="5.0507627"
       sodipodi:ry="5.0507627"
       d="m 154.55334,379.60059 a 5.0507627,5.0507627 0 1 1 -10.10152,0 5.0507627,5.0507627 0 1 1 10.10152,0 z"
       transform="matrix(0.53238298,0,0,0.53238298,504.33594,32.055004)" />
    <path
       sodipodi:type="arc"
       style="fill:#000000;fill-opacity:1;fill-rule:nonzero;stroke:#000000;stroke-width:1;stroke-miterlimit:4;stroke-opacity:1;stroke-dasharray:none"
       id="path2986-8"
       sodipodi:cx="149.50258"
       sodipodi:cy="379.60059"
       sodipodi:rx="5.0507627"
       sodipodi:ry="5.0507627"
       d="m 154.55334,379.60059 a 5.0507627,5.0507627 0 1 1 -10.10152,0 5.0507627,5.0507627 0 1 1 10.10152,0 z"
       transform="matrix(0.53238298,0,0,0.53238298,517.90737,27.412147)" />
    <path
       sodipodi:type="arc"
       style="fill:#000000;fill-opacity:1;fill-rule:nonzero;stroke:#000000;stroke-width:1;stroke-miterlimit:4;stroke-opacity:1;stroke-dasharray:none"
       id="path2986-36"
       sodipodi:cx="149.50258"
       sodipodi:cy="379.60059"
       sodipodi:rx="5.0507627"
       sodipodi:ry="5.0507627"
       d="m 154.55334,379.60059 a 5.0507627,5.0507627 0 1 1 -10.10152,0 5.0507627,5.0507627 0 1 1 10.10152,0 z"
       transform="matrix(0.53238298,0,0,0.53238298,528.9788,17.76929)" />
    <path
       sodipodi:type="arc"
       style="fill:#000000;fill-opacity:1;fill-rule:nonzero;stroke:#000000;stroke-width:1;stroke-miterlimit:4;stroke-opacity:1;stroke-dasharray:none"
       id="path2986-42"
       sodipodi:cx="149.50258"
       sodipodi:cy="379.60059"
       sodipodi:rx="5.0507627"
       sodipodi:ry="5.0507627"
       d="m 154.55334,379.60059 a 5.0507627,5.0507627 0 1 1 -10.10152,0 5.0507627,5.0507627 0 1 1 10.10152,0 z"
       transform="matrix(0.53238298,0,0,0.53238298,536.12166,17.055004)" />
    <path
       sodipodi:type="arc"
       style="fill:#000000;fill-opacity:1;fill-rule:nonzero;stroke:#000000;stroke-width:1;stroke-miterlimit:4;stroke-opacity:1;stroke-dasharray:none"
       id="path2986-369"
       sodipodi:cx="149.50258"
       sodipodi:cy="379.60059"
       sodipodi:rx="5.0507627"
       sodipodi:ry="5.0507627"
       d="m 154.55334,379.60059 a 5.0507627,5.0507627 0 1 1 -10.10152,0 5.0507627,5.0507627 0 1 1 10.10152,0 z"
       transform="matrix(0.53238298,0,0,0.53238298,542.90737,22.76929)" />
    <path
       sodipodi:type="arc"
       style="fill:#000000;fill-opacity:1;fill-rule:nonzero;stroke:#000000;stroke-width:1;stroke-miterlimit:4;stroke-opacity:1;stroke-dasharray:none"
       id="path2986-83"
       sodipodi:cx="149.50258"
       sodipodi:cy="379.60059"
       sodipodi:rx="5.0507627"
       sodipodi:ry="5.0507627"
       d="m 154.55334,379.60059 a 5.0507627,5.0507627 0 1 1 -10.10152,0 5.0507627,5.0507627 0 1 1 10.10152,0 z"
       transform="matrix(0.53238298,0,0,0.53238298,551.83594,25.983576)" />
    <path
       sodipodi:type="arc"
       style="fill:#000000;fill-opacity:1;fill-rule:nonzero;stroke:#000000;stroke-width:1;stroke-miterlimit:4;stroke-opacity:1;stroke-dasharray:none"
       id="path2986-20"
       sodipodi:cx="149.50258"
       sodipodi:cy="379.60059"
       sodipodi:rx="5.0507627"
       sodipodi:ry="5.0507627"
       d="m 154.55334,379.60059 a 5.0507627,5.0507627 0 1 1 -10.10152,0 5.0507627,5.0507627 0 1 1 10.10152,0 z"
       transform="matrix(0.53238298,0,0,0.53238298,556.83594,28.840719)" />
    <path
       sodipodi:type="arc"
       style="fill:#000000;fill-opacity:1;fill-rule:nonzero;stroke:#000000;stroke-width:1;stroke-miterlimit:4;stroke-opacity:1;stroke-dasharray:none"
       id="path2986"
       sodipodi:cx="149.50258"
       sodipodi:cy="379.60059"
       sodipodi:rx="5.0507627"
       sodipodi:ry="5.0507627"
       d="m 154.55334,379.60059 a 5.0507627,5.0507627 0 1 1 -10.10152,0 5.0507627,5.0507627 0 1 1 10.10152,0 z"
       transform="matrix(0.53238298,0,0,0.53238298,355.76452,155.26929)" />
    <path
       sodipodi:type="arc"
       style="fill:#000000;fill-opacity:1;fill-rule:nonzero;stroke:#000000;stroke-width:1;stroke-miterlimit:4;stroke-opacity:1;stroke-dasharray:none"
       id="path2986-5"
       sodipodi:cx="149.50258"
       sodipodi:cy="379.60059"
       sodipodi:rx="5.0507627"
       sodipodi:ry="5.0507627"
       d="m 154.55334,379.60059 a 5.0507627,5.0507627 0 1 1 -10.10152,0 5.0507627,5.0507627 0 1 1 10.10152,0 z"
       transform="matrix(0.53238298,0,0,0.53238298,353.62166,163.12643)" />
    <path
       sodipodi:type="arc"
       style="fill:#000000;fill-opacity:1;fill-rule:nonzero;stroke:#000000;stroke-width:1;stroke-miterlimit:4;stroke-opacity:1;stroke-dasharray:none"
       id="path2986-475"
       sodipodi:cx="149.50258"
       sodipodi:cy="379.60059"
       sodipodi:rx="5.0507627"
       sodipodi:ry="5.0507627"
       d="m 154.55334,379.60059 a 5.0507627,5.0507627 0 1 1 -10.10152,0 5.0507627,5.0507627 0 1 1 10.10152,0 z"
       transform="matrix(0.53238298,0,0,0.53238298,335.40737,167.76929)" />
    <path
       sodipodi:type="arc"
       style="fill:#000000;fill-opacity:1;fill-rule:nonzero;stroke:#000000;stroke-width:1;stroke-miterlimit:4;stroke-opacity:1;stroke-dasharray:none"
       id="path2986-26"
       sodipodi:cx="149.50258"
       sodipodi:cy="379.60059"
       sodipodi:rx="5.0507627"
       sodipodi:ry="5.0507627"
       d="m 154.55334,379.60059 a 5.0507627,5.0507627 0 1 1 -10.10152,0 5.0507627,5.0507627 0 1 1 10.10152,0 z"
       transform="matrix(0.53238298,0,0,0.53238298,316.83594,184.19786)" />
    <path
       sodipodi:type="arc"
       style="fill:#000000;fill-opacity:1;fill-rule:nonzero;stroke:#000000;stroke-width:1;stroke-miterlimit:4;stroke-opacity:1;stroke-dasharray:none"
       id="path2986-85"
       sodipodi:cx="149.50258"
       sodipodi:cy="379.60059"
       sodipodi:rx="5.0507627"
       sodipodi:ry="5.0507627"
       d="m 154.55334,379.60059 a 5.0507627,5.0507627 0 1 1 -10.10152,0 5.0507627,5.0507627 0 1 1 10.10152,0 z"
       transform="matrix(0.53238298,0,0,0.53238298,329.33594,178.48358)" />
    <path
       sodipodi:type="arc"
       style="fill:#000000;fill-opacity:1;fill-rule:nonzero;stroke:#000000;stroke-width:1;stroke-miterlimit:4;stroke-opacity:1;stroke-dasharray:none"
       id="path2986-68"
       sodipodi:cx="149.50258"
       sodipodi:cy="379.60059"
       sodipodi:rx="5.0507627"
       sodipodi:ry="5.0507627"
       d="m 154.55334,379.60059 a 5.0507627,5.0507627 0 1 1 -10.10152,0 5.0507627,5.0507627 0 1 1 10.10152,0 z"
       transform="matrix(0.53238298,0,0,0.53238298,308.26452,190.98358)" />
    <path
       sodipodi:type="arc"
       style="fill:#000000;fill-opacity:1;fill-rule:nonzero;stroke:#000000;stroke-width:1;stroke-miterlimit:4;stroke-opacity:1;stroke-dasharray:none"
       id="path2986-39"
       sodipodi:cx="149.50258"
       sodipodi:cy="379.60059"
       sodipodi:rx="5.0507627"
       sodipodi:ry="5.0507627"
       d="m 154.55334,379.60059 a 5.0507627,5.0507627 0 1 1 -10.10152,0 5.0507627,5.0507627 0 1 1 10.10152,0 z"
       transform="matrix(0.53238298,0,0,0.53238298,295.05023,193.48358)" />
    <path
       sodipodi:type="arc"
       style="fill:#000000;fill-opacity:1;fill-rule:nonzero;stroke:#000000;stroke-width:1;stroke-miterlimit:4;stroke-opacity:1;stroke-dasharray:none"
       id="path2986-73"
       sodipodi:cx="149.50258"
       sodipodi:cy="379.60059"
       sodipodi:rx="5.0507627"
       sodipodi:ry="5.0507627"
       d="m 154.55334,379.60059 a 5.0507627,5.0507627 0 1 1 -10.10152,0 5.0507627,5.0507627 0 1 1 10.10152,0 z"
       transform="matrix(0.53238298,0,0,0.53238298,281.4788,201.69786)" />
    <path
       sodipodi:type="arc"
       style="fill:#000000;fill-opacity:1;fill-rule:nonzero;stroke:#000000;stroke-width:1;stroke-miterlimit:4;stroke-opacity:1;stroke-dasharray:none"
       id="path2986-623"
       sodipodi:cx="149.50258"
       sodipodi:cy="379.60059"
       sodipodi:rx="5.0507627"
       sodipodi:ry="5.0507627"
       d="m 154.55334,379.60059 a 5.0507627,5.0507627 0 1 1 -10.10152,0 5.0507627,5.0507627 0 1 1 10.10152,0 z"
       transform="matrix(0.53238298,0,0,0.53238298,275.40737,210.26929)" />
    <path
       sodipodi:type="arc"
       style="fill:#000000;fill-opacity:1;fill-rule:nonzero;stroke:#000000;stroke-width:1;stroke-miterlimit:4;stroke-opacity:1;stroke-dasharray:none"
       id="path2986-858"
       sodipodi:cx="149.50258"
       sodipodi:cy="379.60059"
       sodipodi:rx="5.0507627"
       sodipodi:ry="5.0507627"
       d="m 154.55334,379.60059 a 5.0507627,5.0507627 0 1 1 -10.10152,0 5.0507627,5.0507627 0 1 1 10.10152,0 z"
       transform="matrix(0.53238298,0,0,0.53238298,256.4788,217.055)" />
    <path
       sodipodi:type="arc"
       style="fill:#000000;fill-opacity:1;fill-rule:nonzero;stroke:#000000;stroke-width:1;stroke-miterlimit:4;stroke-opacity:1;stroke-dasharray:none"
       id="path2986-65"
       sodipodi:cx="149.50258"
       sodipodi:cy="379.60059"
       sodipodi:rx="5.0507627"
       sodipodi:ry="5.0507627"
       d="m 154.55334,379.60059 a 5.0507627,5.0507627 0 1 1 -10.10152,0 5.0507627,5.0507627 0 1 1 10.10152,0 z"
       transform="matrix(0.53238298,0,0,0.53238298,243.26451,229.555)" />
    <path
       sodipodi:type="arc"
       style="fill:#000000;fill-opacity:1;fill-rule:nonzero;stroke:#000000;stroke-width:1;stroke-miterlimit:4;stroke-opacity:1;stroke-dasharray:none"
       id="path2986-59"
       sodipodi:cx="149.50258"
       sodipodi:cy="379.60059"
       sodipodi:rx="5.0507627"
       sodipodi:ry="5.0507627"
       d="m 154.55334,379.60059 a 5.0507627,5.0507627 0 1 1 -10.10152,0 5.0507627,5.0507627 0 1 1 10.10152,0 z"
       transform="matrix(0.53238298,0,0,0.53238298,226.83594,234.91215)" />
    <path
       sodipodi:type="arc"
       style="fill:#000000;fill-opacity:1;fill-rule:nonzero;stroke:#000000;stroke-width:1;stroke-miterlimit:4;stroke-opacity:1;stroke-dasharray:none"
       id="path2986-09"
       sodipodi:cx="149.50258"
       sodipodi:cy="379.60059"
       sodipodi:rx="5.0507627"
       sodipodi:ry="5.0507627"
       d="m 154.55334,379.60059 a 5.0507627,5.0507627 0 1 1 -10.10152,0 5.0507627,5.0507627 0 1 1 10.10152,0 z"
       transform="matrix(0.53238298,0,0,0.53238298,218.62166,243.12643)" />
    <path
       sodipodi:type="arc"
       style="fill:#000000;fill-opacity:1;fill-rule:nonzero;stroke:#000000;stroke-width:1;stroke-miterlimit:4;stroke-opacity:1;stroke-dasharray:none"
       id="path2986-84"
       sodipodi:cx="149.50258"
       sodipodi:cy="379.60059"
       sodipodi:rx="5.0507627"
       sodipodi:ry="5.0507627"
       d="m 154.55334,379.60059 a 5.0507627,5.0507627 0 1 1 -10.10152,0 5.0507627,5.0507627 0 1 1 10.10152,0 z"
       transform="matrix(0.53238298,0,0,0.53238298,227.55023,249.555)" />
    <path
       sodipodi:type="arc"
       style="fill:#000000;fill-opacity:1;fill-rule:nonzero;stroke:#000000;stroke-width:1;stroke-miterlimit:4;stroke-opacity:1;stroke-dasharray:none"
       id="path2986-423"
       sodipodi:cx="149.50258"
       sodipodi:cy="379.60059"
       sodipodi:rx="5.0507627"
       sodipodi:ry="5.0507627"
       d="m 154.55334,379.60059 a 5.0507627,5.0507627 0 1 1 -10.10152,0 5.0507627,5.0507627 0 1 1 10.10152,0 z"
       transform="matrix(0.53238298,0,0,0.53238298,220.40737,247.055)" />
    <path
       sodipodi:type="arc"
       style="fill:#000000;fill-opacity:1;fill-rule:nonzero;stroke:#000000;stroke-width:1;stroke-miterlimit:4;stroke-opacity:1;stroke-dasharray:none"
       id="path2986-58"
       sodipodi:cx="149.50258"
       sodipodi:cy="379.60059"
       sodipodi:rx="5.0507627"
       sodipodi:ry="5.0507627"
       d="m 154.55334,379.60059 a 5.0507627,5.0507627 0 1 1 -10.10152,0 5.0507627,5.0507627 0 1 1 10.10152,0 z"
       transform="matrix(0.53238298,0,0,0.53238298,228.9788,258.48358)" />
    <path
       sodipodi:type="arc"
       style="fill:#000000;fill-opacity:1;fill-rule:nonzero;stroke:#000000;stroke-width:1;stroke-miterlimit:4;stroke-opacity:1;stroke-dasharray:none"
       id="path2986-376"
       sodipodi:cx="149.50258"
       sodipodi:cy="379.60059"
       sodipodi:rx="5.0507627"
       sodipodi:ry="5.0507627"
       d="m 154.55334,379.60059 a 5.0507627,5.0507627 0 1 1 -10.10152,0 5.0507627,5.0507627 0 1 1 10.10152,0 z"
       transform="matrix(0.53238298,0,0,0.53238298,224.33594,270.62643)" />
    <path
       sodipodi:type="arc"
       style="fill:#000000;fill-opacity:1;fill-rule:nonzero;stroke:#000000;stroke-width:1;stroke-miterlimit:4;stroke-opacity:1;stroke-dasharray:none"
       id="path2986-30"
       sodipodi:cx="149.50258"
       sodipodi:cy="379.60059"
       sodipodi:rx="5.0507627"
       sodipodi:ry="5.0507627"
       d="m 154.55334,379.60059 a 5.0507627,5.0507627 0 1 1 -10.10152,0 5.0507627,5.0507627 0 1 1 10.10152,0 z"
       transform="matrix(0.53238298,0,0,0.53238298,235.05023,265.62643)" />
    <path
       sodipodi:type="arc"
       style="fill:#000000;fill-opacity:1;fill-rule:nonzero;stroke:#000000;stroke-width:1;stroke-miterlimit:4;stroke-opacity:1;stroke-dasharray:none"
       id="path2986-08"
       sodipodi:cx="149.50258"
       sodipodi:cy="379.60059"
       sodipodi:rx="5.0507627"
       sodipodi:ry="5.0507627"
       d="m 154.55334,379.60059 a 5.0507627,5.0507627 0 1 1 -10.10152,0 5.0507627,5.0507627 0 1 1 10.10152,0 z"
       transform="matrix(0.53238298,0,0,0.53238298,217.19309,276.69786)" />
    <path
       sodipodi:type="arc"
       style="fill:#000000;fill-opacity:1;fill-rule:nonzero;stroke:#000000;stroke-width:1;stroke-miterlimit:4;stroke-opacity:1;stroke-dasharray:none"
       id="path2986-88"
       sodipodi:cx="149.50258"
       sodipodi:cy="379.60059"
       sodipodi:rx="5.0507627"
       sodipodi:ry="5.0507627"
       d="m 154.55334,379.60059 a 5.0507627,5.0507627 0 1 1 -10.10152,0 5.0507627,5.0507627 0 1 1 10.10152,0 z"
       transform="matrix(0.53238298,0,0,0.53238298,205.05023,280.98358)" />
    <path
       sodipodi:type="arc"
       style="fill:#000000;fill-opacity:1;fill-rule:nonzero;stroke:#000000;stroke-width:1;stroke-miterlimit:4;stroke-opacity:1;stroke-dasharray:none"
       id="path2986-35"
       sodipodi:cx="149.50258"
       sodipodi:cy="379.60059"
       sodipodi:rx="5.0507627"
       sodipodi:ry="5.0507627"
       d="m 154.55334,379.60059 a 5.0507627,5.0507627 0 1 1 -10.10152,0 5.0507627,5.0507627 0 1 1 10.10152,0 z"
       transform="matrix(0.53238298,0,0,0.53238298,197.19309,291.34072)" />
    <path
       sodipodi:type="arc"
       style="fill:#000000;fill-opacity:1;fill-rule:nonzero;stroke:#000000;stroke-width:1;stroke-miterlimit:4;stroke-opacity:1;stroke-dasharray:none"
       id="path2986-200"
       sodipodi:cx="149.50258"
       sodipodi:cy="379.60059"
       sodipodi:rx="5.0507627"
       sodipodi:ry="5.0507627"
       d="m 154.55334,379.60059 a 5.0507627,5.0507627 0 1 1 -10.10152,0 5.0507627,5.0507627 0 1 1 10.10152,0 z"
       transform="matrix(0.53238298,0,0,0.53238298,181.83594,296.34072)" />
    <path
       sodipodi:type="arc"
       style="fill:#000000;fill-opacity:1;fill-rule:nonzero;stroke:#000000;stroke-width:1;stroke-miterlimit:4;stroke-opacity:1;stroke-dasharray:none"
       id="path2986-89"
       sodipodi:cx="149.50258"
       sodipodi:cy="379.60059"
       sodipodi:rx="5.0507627"
       sodipodi:ry="5.0507627"
       d="m 154.55334,379.60059 a 5.0507627,5.0507627 0 1 1 -10.10152,0 5.0507627,5.0507627 0 1 1 10.10152,0 z"
       transform="matrix(0.53238298,0,0,0.53238298,171.83594,302.41215)" />
    <path
       sodipodi:type="arc"
       style="fill:#000000;fill-opacity:1;fill-rule:nonzero;stroke:#000000;stroke-width:1;stroke-miterlimit:4;stroke-opacity:1;stroke-dasharray:none"
       id="path2986-53"
       sodipodi:cx="149.50258"
       sodipodi:cy="379.60059"
       sodipodi:rx="5.0507627"
       sodipodi:ry="5.0507627"
       d="m 154.55334,379.60059 a 5.0507627,5.0507627 0 1 1 -10.10152,0 5.0507627,5.0507627 0 1 1 10.10152,0 z"
       transform="matrix(0.53238298,0,0,0.53238298,161.12166,308.84072)" />
    <path
       sodipodi:type="arc"
       style="fill:#000000;fill-opacity:1;fill-rule:nonzero;stroke:#000000;stroke-width:1;stroke-miterlimit:4;stroke-opacity:1;stroke-dasharray:none"
       id="path2986-098"
       sodipodi:cx="149.50258"
       sodipodi:cy="379.60059"
       sodipodi:rx="5.0507627"
       sodipodi:ry="5.0507627"
       d="m 154.55334,379.60059 a 5.0507627,5.0507627 0 1 1 -10.10152,0 5.0507627,5.0507627 0 1 1 10.10152,0 z"
       transform="matrix(0.53238298,0,0,0.53238298,152.19309,317.76929)" />
    <path
       sodipodi:type="arc"
       style="fill:#000000;fill-opacity:1;fill-rule:nonzero;stroke:#000000;stroke-width:1;stroke-miterlimit:4;stroke-opacity:1;stroke-dasharray:none"
       id="path2986-23"
       sodipodi:cx="149.50258"
       sodipodi:cy="379.60059"
       sodipodi:rx="5.0507627"
       sodipodi:ry="5.0507627"
       d="m 154.55334,379.60059 a 5.0507627,5.0507627 0 1 1 -10.10152,0 5.0507627,5.0507627 0 1 1 10.10152,0 z"
       transform="matrix(0.53238298,0,0,0.53238298,138.62166,324.19786)" />
    <path
       sodipodi:type="arc"
       style="fill:#000000;fill-opacity:1;fill-rule:nonzero;stroke:#000000;stroke-width:1;stroke-miterlimit:4;stroke-opacity:1;stroke-dasharray:none"
       id="path2986-07"
       sodipodi:cx="149.50258"
       sodipodi:cy="379.60059"
       sodipodi:rx="5.0507627"
       sodipodi:ry="5.0507627"
       d="m 154.55334,379.60059 a 5.0507627,5.0507627 0 1 1 -10.10152,0 5.0507627,5.0507627 0 1 1 10.10152,0 z"
       transform="matrix(0.53238298,0,0,0.53238298,127.55023,329.555)" />
    <path
       sodipodi:type="arc"
       style="fill:#000000;fill-opacity:1;fill-rule:nonzero;stroke:#000000;stroke-width:1;stroke-miterlimit:4;stroke-opacity:1;stroke-dasharray:none"
       id="path2986-06"
       sodipodi:cx="149.50258"
       sodipodi:cy="379.60059"
       sodipodi:rx="5.0507627"
       sodipodi:ry="5.0507627"
       d="m 154.55334,379.60059 a 5.0507627,5.0507627 0 1 1 -10.10152,0 5.0507627,5.0507627 0 1 1 10.10152,0 z"
       transform="matrix(0.53238298,0,0,0.53238298,116.4788,335.26929)" />
    <path
       sodipodi:type="arc"
       style="fill:#000000;fill-opacity:1;fill-rule:nonzero;stroke:#000000;stroke-width:1;stroke-miterlimit:4;stroke-opacity:1;stroke-dasharray:none"
       id="path2986-12"
       sodipodi:cx="149.50258"
       sodipodi:cy="379.60059"
       sodipodi:rx="5.0507627"
       sodipodi:ry="5.0507627"
       d="m 154.55334,379.60059 a 5.0507627,5.0507627 0 1 1 -10.10152,0 5.0507627,5.0507627 0 1 1 10.10152,0 z"
       transform="matrix(0.53238298,0,0,0.53238298,108.9788,344.91215)" />
    <path
       sodipodi:type="arc"
       style="fill:#000000;fill-opacity:1;fill-rule:nonzero;stroke:#000000;stroke-width:1;stroke-miterlimit:4;stroke-opacity:1;stroke-dasharray:none"
       id="path2986-953"
       sodipodi:cx="149.50258"
       sodipodi:cy="379.60059"
       sodipodi:rx="5.0507627"
       sodipodi:ry="5.0507627"
       d="m 154.55334,379.60059 a 5.0507627,5.0507627 0 1 1 -10.10152,0 5.0507627,5.0507627 0 1 1 10.10152,0 z"
       transform="matrix(0.53238298,0,0,0.53238298,93.9788,351.69786)" />
    <path
       sodipodi:type="arc"
       style="fill:#000000;fill-opacity:1;fill-rule:nonzero;stroke:#000000;stroke-width:1;stroke-miterlimit:4;stroke-opacity:1;stroke-dasharray:none"
       id="path2986-57"
       sodipodi:cx="149.50258"
       sodipodi:cy="379.60059"
       sodipodi:rx="5.0507627"
       sodipodi:ry="5.0507627"
       d="m 154.55334,379.60059 a 5.0507627,5.0507627 0 1 1 -10.10152,0 5.0507627,5.0507627 0 1 1 10.10152,0 z"
       transform="matrix(0.53238298,0,0,0.53238298,80.764515,359.555)" />
    <path
       sodipodi:type="arc"
       style="fill:#000000;fill-opacity:1;fill-rule:nonzero;stroke:#000000;stroke-width:1;stroke-miterlimit:4;stroke-opacity:1;stroke-dasharray:none"
       id="path2986-61"
       sodipodi:cx="149.50258"
       sodipodi:cy="379.60059"
       sodipodi:rx="5.0507627"
       sodipodi:ry="5.0507627"
       d="m 154.55334,379.60059 a 5.0507627,5.0507627 0 1 1 -10.10152,0 5.0507627,5.0507627 0 1 1 10.10152,0 z"
       transform="matrix(0.53238298,0,0,0.53238298,83.9788,367.76929)" />
    <path
       sodipodi:type="arc"
       style="fill:#000000;fill-opacity:1;fill-rule:nonzero;stroke:#000000;stroke-width:1;stroke-miterlimit:4;stroke-opacity:1;stroke-dasharray:none"
       id="path2986-592"
       sodipodi:cx="149.50258"
       sodipodi:cy="379.60059"
       sodipodi:rx="5.0507627"
       sodipodi:ry="5.0507627"
       d="m 154.55334,379.60059 a 5.0507627,5.0507627 0 1 1 -10.10152,0 5.0507627,5.0507627 0 1 1 10.10152,0 z"
       transform="matrix(0.53238298,0,0,0.53238298,91.835943,375.26929)" />
    <path
       sodipodi:type="arc"
       style="fill:#000000;fill-opacity:1;fill-rule:nonzero;stroke:#000000;stroke-width:1;stroke-miterlimit:4;stroke-opacity:1;stroke-dasharray:none"
       id="path2986-32"
       sodipodi:cx="149.50258"
       sodipodi:cy="379.60059"
       sodipodi:rx="5.0507627"
       sodipodi:ry="5.0507627"
       d="m 154.55334,379.60059 a 5.0507627,5.0507627 0 1 1 -10.10152,0 5.0507627,5.0507627 0 1 1 10.10152,0 z"
       transform="matrix(0.53238298,0,0,0.53238298,88.9788,385.62643)" />
    <path
       sodipodi:type="arc"
       style="fill:#000000;fill-opacity:1;fill-rule:nonzero;stroke:#000000;stroke-width:1;stroke-miterlimit:4;stroke-opacity:1;stroke-dasharray:none"
       id="path2986-10"
       sodipodi:cx="149.50258"
       sodipodi:cy="379.60059"
       sodipodi:rx="5.0507627"
       sodipodi:ry="5.0507627"
       d="m 154.55334,379.60059 a 5.0507627,5.0507627 0 1 1 -10.10152,0 5.0507627,5.0507627 0 1 1 10.10152,0 z"
       transform="matrix(0.53238298,0,0,0.53238298,76.4788,394.91215)" />
    <path
       sodipodi:type="arc"
       style="fill:#000000;fill-opacity:1;fill-rule:nonzero;stroke:#000000;stroke-width:1;stroke-miterlimit:4;stroke-opacity:1;stroke-dasharray:none"
       id="path2986-48"
       sodipodi:cx="149.50258"
       sodipodi:cy="379.60059"
       sodipodi:rx="5.0507627"
       sodipodi:ry="5.0507627"
       d="m 154.55334,379.60059 a 5.0507627,5.0507627 0 1 1 -10.10152,0 5.0507627,5.0507627 0 1 1 10.10152,0 z"
       transform="matrix(0.53238298,0,0,0.53238298,63.264515,404.91215)" />
    <path
       sodipodi:type="arc"
       style="fill:#000000;fill-opacity:1;fill-rule:nonzero;stroke:#000000;stroke-width:1;stroke-miterlimit:4;stroke-opacity:1;stroke-dasharray:none"
       id="path2986-393"
       sodipodi:cx="149.50258"
       sodipodi:cy="379.60059"
       sodipodi:rx="5.0507627"
       sodipodi:ry="5.0507627"
       d="m 154.55334,379.60059 a 5.0507627,5.0507627 0 1 1 -10.10152,0 5.0507627,5.0507627 0 1 1 10.10152,0 z"
       transform="matrix(0.53238298,0,0,0.53238298,50.050229,410.62643)" />
    <path
       sodipodi:type="arc"
       style="fill:#000000;fill-opacity:1;fill-rule:nonzero;stroke:#000000;stroke-width:1;stroke-miterlimit:4;stroke-opacity:1;stroke-dasharray:none"
       id="path2986-04"
       sodipodi:cx="149.50258"
       sodipodi:cy="379.60059"
       sodipodi:rx="5.0507627"
       sodipodi:ry="5.0507627"
       d="m 154.55334,379.60059 a 5.0507627,5.0507627 0 1 1 -10.10152,0 5.0507627,5.0507627 0 1 1 10.10152,0 z"
       transform="matrix(0.53238298,0,0,0.53238298,42.550229,419.19786)" />
    <path
       sodipodi:type="arc"
       style="fill:#000000;fill-opacity:1;fill-rule:nonzero;stroke:#000000;stroke-width:1;stroke-miterlimit:4;stroke-opacity:1;stroke-dasharray:none"
       id="path2986-961"
       sodipodi:cx="149.50258"
       sodipodi:cy="379.60059"
       sodipodi:rx="5.0507627"
       sodipodi:ry="5.0507627"
       d="m 154.55334,379.60059 a 5.0507627,5.0507627 0 1 1 -10.10152,0 5.0507627,5.0507627 0 1 1 10.10152,0 z"
       transform="matrix(0.53238298,0,0,0.53238298,22.193086,427.76929)" />
    <path
       sodipodi:type="arc"
       style="fill:#000000;fill-opacity:1;fill-rule:nonzero;stroke:#000000;stroke-width:1;stroke-miterlimit:4;stroke-opacity:1;stroke-dasharray:none"
       id="path2986-392"
       sodipodi:cx="149.50258"
       sodipodi:cy="379.60059"
       sodipodi:rx="5.0507627"
       sodipodi:ry="5.0507627"
       d="m 154.55334,379.60059 a 5.0507627,5.0507627 0 1 1 -10.10152,0 5.0507627,5.0507627 0 1 1 10.10152,0 z"
       transform="matrix(0.53238298,0,0,0.53238298,85.050229,392.05501)" />
    <path
       sodipodi:type="arc"
       style="fill:#000000;fill-opacity:1;fill-rule:nonzero;stroke:#000000;stroke-width:1;stroke-miterlimit:4;stroke-opacity:1;stroke-dasharray:none"
       id="path2986-55"
       sodipodi:cx="149.50258"
       sodipodi:cy="379.60059"
       sodipodi:rx="5.0507627"
       sodipodi:ry="5.0507627"
       d="m 154.55334,379.60059 a 5.0507627,5.0507627 0 1 1 -10.10152,0 5.0507627,5.0507627 0 1 1 10.10152,0 z"
       transform="matrix(0.53238298,0,0,0.53238298,15.407372,433.12643)" />
    <path
       sodipodi:type="arc"
       style="fill:#000000;fill-opacity:1;fill-rule:nonzero;stroke:#000000;stroke-width:1;stroke-miterlimit:4;stroke-opacity:1;stroke-dasharray:none"
       id="path2986-24"
       sodipodi:cx="149.50258"
       sodipodi:cy="379.60059"
       sodipodi:rx="5.0507627"
       sodipodi:ry="5.0507627"
       d="m 154.55334,379.60059 a 5.0507627,5.0507627 0 1 1 -10.10152,0 5.0507627,5.0507627 0 1 1 10.10152,0 z"
       transform="matrix(0.53238298,0,0,0.53238298,3.2645146,439.91215)" />
    <path
       sodipodi:type="arc"
       style="fill:#000000;fill-opacity:1;fill-rule:nonzero;stroke:#000000;stroke-width:1;stroke-miterlimit:4;stroke-opacity:1;stroke-dasharray:none"
       id="path2986-29"
       sodipodi:cx="149.50258"
       sodipodi:cy="379.60059"
       sodipodi:rx="5.0507627"
       sodipodi:ry="5.0507627"
       d="m 154.55334,379.60059 a 5.0507627,5.0507627 0 1 1 -10.10152,0 5.0507627,5.0507627 0 1 1 10.10152,0 z"
       transform="matrix(0.53238298,0,0,0.53238298,-6.0211997,448.12643)" />
    <path
       sodipodi:type="arc"
       style="fill:#000000;fill-opacity:1;fill-rule:nonzero;stroke:#000000;stroke-width:1;stroke-miterlimit:4;stroke-opacity:1;stroke-dasharray:none"
       id="path2986-11"
       sodipodi:cx="149.50258"
       sodipodi:cy="379.60059"
       sodipodi:rx="5.0507627"
       sodipodi:ry="5.0507627"
       d="m 154.55334,379.60059 a 5.0507627,5.0507627 0 1 1 -10.10152,0 5.0507627,5.0507627 0 1 1 10.10152,0 z"
       transform="matrix(0.53238298,0,0,0.53238298,-19.235485,451.69786)" />
    <path
       sodipodi:type="arc"
       style="fill:#000000;fill-opacity:1;fill-rule:nonzero;stroke:#000000;stroke-width:1;stroke-miterlimit:4;stroke-opacity:1;stroke-dasharray:none"
       id="path2986-477"
       sodipodi:cx="149.50258"
       sodipodi:cy="379.60059"
       sodipodi:rx="5.0507627"
       sodipodi:ry="5.0507627"
       d="m 154.55334,379.60059 a 5.0507627,5.0507627 0 1 1 -10.10152,0 5.0507627,5.0507627 0 1 1 10.10152,0 z"
       transform="matrix(0.53238298,0,0,0.53238298,-29.949771,460.62643)" />
    <path
       sodipodi:type="arc"
       style="fill:#000000;fill-opacity:1;fill-rule:nonzero;stroke:#000000;stroke-width:1;stroke-miterlimit:4;stroke-opacity:1;stroke-dasharray:none"
       id="path2986-38"
       sodipodi:cx="149.50258"
       sodipodi:cy="379.60059"
       sodipodi:rx="5.0507627"
       sodipodi:ry="5.0507627"
       d="m 154.55334,379.60059 a 5.0507627,5.0507627 0 1 1 -10.10152,0 5.0507627,5.0507627 0 1 1 10.10152,0 z"
       transform="matrix(0.53238298,0,0,0.53238298,-39.235485,465.26929)" />
    <path
       sodipodi:type="arc"
       style="fill:#000000;fill-opacity:1;fill-rule:nonzero;stroke:#000000;stroke-width:1;stroke-miterlimit:4;stroke-opacity:1;stroke-dasharray:none"
       id="path2986-687"
       sodipodi:cx="149.50258"
       sodipodi:cy="379.60059"
       sodipodi:rx="5.0507627"
       sodipodi:ry="5.0507627"
       d="m 154.55334,379.60059 a 5.0507627,5.0507627 0 1 1 -10.10152,0 5.0507627,5.0507627 0 1 1 10.10152,0 z"
       transform="matrix(0.53238298,0,0,0.53238298,-48.878343,469.91215)" />
    <path
       sodipodi:type="arc"
       style="fill:#000000;fill-opacity:1;fill-rule:nonzero;stroke:#000000;stroke-width:1;stroke-miterlimit:4;stroke-opacity:1;stroke-dasharray:none"
       id="path2986-956"
       sodipodi:cx="149.50258"
       sodipodi:cy="379.60059"
       sodipodi:rx="5.0507627"
       sodipodi:ry="5.0507627"
       d="m 154.55334,379.60059 a 5.0507627,5.0507627 0 1 1 -10.10152,0 5.0507627,5.0507627 0 1 1 10.10152,0 z"
       transform="matrix(0.53238298,0,0,0.53238298,-47.449771,480.26929)" />
    <path
       sodipodi:type="arc"
       style="fill:#000000;fill-opacity:1;fill-rule:nonzero;stroke:#000000;stroke-width:1;stroke-miterlimit:4;stroke-opacity:1;stroke-dasharray:none"
       id="path2986-078"
       sodipodi:cx="149.50258"
       sodipodi:cy="379.60059"
       sodipodi:rx="5.0507627"
       sodipodi:ry="5.0507627"
       d="m 154.55334,379.60059 a 5.0507627,5.0507627 0 1 1 -10.10152,0 5.0507627,5.0507627 0 1 1 10.10152,0 z"
       transform="matrix(0.53238298,0,0,0.53238298,-43.878343,490.98358)" />
  </g>
</svg>
