<?xml version="1.0" encoding="UTF-8" standalone="no"?>
<!-- Created with Inkscape (http://www.inkscape.org/) -->

<svg
   xmlns:dc="http://purl.org/dc/elements/1.1/"
   xmlns:cc="http://creativecommons.org/ns#"
   xmlns:rdf="http://www.w3.org/1999/02/22-rdf-syntax-ns#"
   xmlns:svg="http://www.w3.org/2000/svg"
   xmlns="http://www.w3.org/2000/svg"
   xmlns:sodipodi="http://sodipodi.sourceforge.net/DTD/sodipodi-0.dtd"
   xmlns:inkscape="http://www.inkscape.org/namespaces/inkscape"
   width="744.09448819"
   height="1052.3622047"
   id="svg2"
   inkscape:label="Pozadí"
   version="1.1"
   inkscape:version="0.48.2 r9819"
   sodipodi:docname="strecha-big.svg">
  <defs
     id="defs3" />
  <sodipodi:namedview
     id="base"
     pagecolor="#ffffff"
     bordercolor="#666666"
     borderopacity="1.0"
     inkscape:pageopacity="0.0"
     inkscape:pageshadow="2"
     inkscape:zoom="0.98994949"
     inkscape:cx="177.40888"
     inkscape:cy="547.12687"
     inkscape:document-units="px"
     inkscape:current-layer="layer1"
     showgrid="false"
     inkscape:window-width="1280"
     inkscape:window-height="753"
     inkscape:window-x="-3"
     inkscape:window-y="0"
     inkscape:window-maximized="1" />
  <metadata
     id="metadata6">
    <rdf:RDF>
      <cc:Work
         rdf:about="">
        <dc:format>image/svg+xml</dc:format>
        <dc:type
           rdf:resource="http://purl.org/dc/dcmitype/StillImage" />
        <dc:title />
      </cc:Work>
    </rdf:RDF>
  </metadata>
  <g
     inkscape:label="Vrstva 1"
     inkscape:groupmode="layer"
     id="layer1">
    <path
       style="fill:none;stroke:#c8c8c8;stroke-width:1px;stroke-linecap:butt;stroke-linejoin:miter;stroke-opacity:1"
       d="m 480.41617,331.54534 -180.71429,111.42857 12.14286,22.85714 195.53572,-119.28571 17.14285,15 22.85714,-19.10715 -33.75,-31.96429 z"
       id="path3841-7-5-7"
       inkscape:connector-curvature="0"
       sodipodi:nodetypes="ccccc" />
    <path
       style="fill:none;stroke:#c8c8c8;stroke-width:1px;stroke-linecap:butt;stroke-linejoin:miter;stroke-opacity:1"
       d="m 501.57589,382.04152 -16.42857,-13.57143 23.57143,-19.28571 15.71428,14.28571"
       id="path3819"
       inkscape:connector-curvature="0" />
    <path
       style="fill:none;stroke:#c8c8c8;stroke-width:1px;stroke-linecap:butt;stroke-linejoin:miter;stroke-opacity:1"
       d="m 361.5759,500.61296 -16.42857,-13.57143 23.57143,-19.28571 15.71428,14.28571"
       id="path3819-8"
       inkscape:connector-curvature="0" />
    <path
       style="fill:none;stroke:#c8c8c8;stroke-width:1px;stroke-linecap:butt;stroke-linejoin:miter;stroke-opacity:1"
       d="m 341.5759,450.61296 -180.71429,111.42857 12.14286,22.85714 195.53572,-119.28571 17.14285,15 22.85714,-19.10715 -33.75,-31.96429 z"
       id="path3841-7-5"
       inkscape:connector-curvature="0"
       sodipodi:nodetypes="ccccc" />
    <path
       style="fill:none;stroke:#c8c8c8;stroke-width:1px;stroke-linecap:butt;stroke-linejoin:miter;stroke-opacity:1"
       d="m 230.14733,614.18438 -16.42857,-13.57143 23.57143,-19.28571 15.71428,14.28571"
       id="path3819-0"
       inkscape:connector-curvature="0" />
    <path
       style="fill:none;stroke:#c8c8c8;stroke-width:1px;stroke-linecap:butt;stroke-linejoin:miter;stroke-opacity:1"
       d="m 433.00446,328.11295 85.25487,-52.33465 22.56128,17.9438 -95.67329,57.24799 z"
       id="path3841-7-4"
       inkscape:connector-curvature="0"
       sodipodi:nodetypes="ccccc" />
    <path
       style="fill:none;stroke:#c8c8c8;stroke-width:0.79936332;stroke-linecap:butt;stroke-linejoin:miter;stroke-miterlimit:4;stroke-opacity:1;stroke-dasharray:none"
       d="M 604.564,294.73466 159.19675,676.46231"
       id="path3900"
       inkscape:connector-curvature="0" />
    <path
       style="fill:none;stroke:#c8c8c8;stroke-width:1px;stroke-linecap:butt;stroke-linejoin:miter;stroke-opacity:1"
       d="m 210.23662,563.64867 -77.85715,46.42857 15,25 89.82144,-56.42857 17.14285,15 22.85714,-19.10715 -33.75,-31.96429 z"
       id="path3841-7-5-4"
       inkscape:connector-curvature="0"
       sodipodi:nodetypes="cccccccc" />
    <path
       sodipodi:type="arc"
       style="fill:#000000;fill-opacity:1;fill-rule:nonzero;stroke:#000000;stroke-width:1;stroke-miterlimit:4;stroke-opacity:1;stroke-dasharray:none"
       id="path2986-0"
       sodipodi:cx="149.50258"
       sodipodi:cy="379.60059"
       sodipodi:rx="5.0507627"
       sodipodi:ry="5.0507627"
       d="m 154.55334,379.60059 a 5.0507627,5.0507627 0 1 1 -10.10152,0 5.0507627,5.0507627 0 1 1 10.10152,0 z"
       transform="matrix(0.53238298,0,0,0.53238298,353.26452,126.34072)" />
    <path
       sodipodi:type="arc"
       style="fill:#000000;fill-opacity:1;fill-rule:nonzero;stroke:#000000;stroke-width:1;stroke-miterlimit:4;stroke-opacity:1;stroke-dasharray:none"
       id="path2986-9"
       sodipodi:cx="149.50258"
       sodipodi:cy="379.60059"
       sodipodi:rx="5.0507627"
       sodipodi:ry="5.0507627"
       d="m 154.55334,379.60059 a 5.0507627,5.0507627 0 1 1 -10.10152,0 5.0507627,5.0507627 0 1 1 10.10152,0 z"
       transform="matrix(0.53238298,0,0,0.53238298,355.76452,136.34072)" />
    <path
       sodipodi:type="arc"
       style="fill:#00ff00;fill-opacity:1;fill-rule:nonzero;stroke:#00ff00;stroke-width:1;stroke-miterlimit:4;stroke-opacity:1;stroke-dasharray:none"
       id="path2986-1"
       sodipodi:cx="149.50258"
       sodipodi:cy="379.60059"
       sodipodi:rx="5.0507627"
       sodipodi:ry="5.0507627"
       d="m 154.55334,379.60059 a 5.0507627,5.0507627 0 1 1 -10.10152,0 5.0507627,5.0507627 0 1 1 10.10152,0 z"
       transform="matrix(0.53238298,0,0,0.53238298,363.9788,142.055)" />
    <path
       sodipodi:type="arc"
       style="fill:#000000;fill-opacity:1;fill-rule:nonzero;stroke:#000000;stroke-width:1;stroke-miterlimit:4;stroke-opacity:1;stroke-dasharray:none"
       id="path2986-7"
       sodipodi:cx="149.50258"
       sodipodi:cy="379.60059"
       sodipodi:rx="5.0507627"
       sodipodi:ry="5.0507627"
       d="m 154.55334,379.60059 a 5.0507627,5.0507627 0 1 1 -10.10152,0 5.0507627,5.0507627 0 1 1 10.10152,0 z"
       transform="matrix(0.53238298,0,0,0.53238298,363.62166,152.055)" />
    <path
       sodipodi:type="arc"
       style="fill:#000000;fill-opacity:1;fill-rule:nonzero;stroke:#000000;stroke-width:1;stroke-miterlimit:4;stroke-opacity:1;stroke-dasharray:none"
       id="path2986-6"
       sodipodi:cx="149.50258"
       sodipodi:cy="379.60059"
       sodipodi:rx="5.0507627"
       sodipodi:ry="5.0507627"
       d="m 154.55334,379.60059 a 5.0507627,5.0507627 0 1 1 -10.10152,0 5.0507627,5.0507627 0 1 1 10.10152,0 z"
       transform="matrix(0.53238298,0,0,0.53238298,364.33594,124.19786)" />
    <path
       sodipodi:type="arc"
       style="fill:#000000;fill-opacity:1;fill-rule:nonzero;stroke:#000000;stroke-width:1;stroke-miterlimit:4;stroke-opacity:1;stroke-dasharray:none"
       id="path2986-3"
       sodipodi:cx="149.50258"
       sodipodi:cy="379.60059"
       sodipodi:rx="5.0507627"
       sodipodi:ry="5.0507627"
       d="m 154.55334,379.60059 a 5.0507627,5.0507627 0 1 1 -10.10152,0 5.0507627,5.0507627 0 1 1 10.10152,0 z"
       transform="matrix(0.53238298,0,0,0.53238298,369.69309,114.555)" />
    <path
       sodipodi:type="arc"
       style="fill:#000000;fill-opacity:1;fill-rule:nonzero;stroke:#000000;stroke-width:1;stroke-miterlimit:4;stroke-opacity:1;stroke-dasharray:none"
       id="path2986-95"
       sodipodi:cx="149.50258"
       sodipodi:cy="379.60059"
       sodipodi:rx="5.0507627"
       sodipodi:ry="5.0507627"
       d="m 154.55334,379.60059 a 5.0507627,5.0507627 0 1 1 -10.10152,0 5.0507627,5.0507627 0 1 1 10.10152,0 z"
       transform="matrix(0.53238298,0,0,0.53238298,382.55023,112.055)" />
    <path
       sodipodi:type="arc"
       style="fill:#000000;fill-opacity:1;fill-rule:nonzero;stroke:#000000;stroke-width:1;stroke-miterlimit:4;stroke-opacity:1;stroke-dasharray:none"
       id="path2986-2"
       sodipodi:cx="149.50258"
       sodipodi:cy="379.60059"
       sodipodi:rx="5.0507627"
       sodipodi:ry="5.0507627"
       d="m 154.55334,379.60059 a 5.0507627,5.0507627 0 1 1 -10.10152,0 5.0507627,5.0507627 0 1 1 10.10152,0 z"
       transform="matrix(0.53238298,0,0,0.53238298,393.26452,105.26929)" />
    <path
       sodipodi:type="arc"
       style="fill:#000000;fill-opacity:1;fill-rule:nonzero;stroke:#000000;stroke-width:1;stroke-miterlimit:4;stroke-opacity:1;stroke-dasharray:none"
       id="path2986-28"
       sodipodi:cx="149.50258"
       sodipodi:cy="379.60059"
       sodipodi:rx="5.0507627"
       sodipodi:ry="5.0507627"
       d="m 154.55334,379.60059 a 5.0507627,5.0507627 0 1 1 -10.10152,0 5.0507627,5.0507627 0 1 1 10.10152,0 z"
       transform="matrix(0.53238298,0,0,0.53238298,403.62166,96.340719)" />
    <path
       sodipodi:type="arc"
       style="fill:#000000;fill-opacity:1;fill-rule:nonzero;stroke:#000000;stroke-width:1;stroke-miterlimit:4;stroke-opacity:1;stroke-dasharray:none"
       id="path2986-96"
       sodipodi:cx="149.50258"
       sodipodi:cy="379.60059"
       sodipodi:rx="5.0507627"
       sodipodi:ry="5.0507627"
       d="m 154.55334,379.60059 a 5.0507627,5.0507627 0 1 1 -10.10152,0 5.0507627,5.0507627 0 1 1 10.10152,0 z"
       transform="matrix(0.53238298,0,0,0.53238298,414.69309,87.055005)" />
    <path
       sodipodi:type="arc"
       style="fill:#000000;fill-opacity:1;fill-rule:nonzero;stroke:#000000;stroke-width:1;stroke-miterlimit:4;stroke-opacity:1;stroke-dasharray:none"
       id="path2986-72"
       sodipodi:cx="149.50258"
       sodipodi:cy="379.60059"
       sodipodi:rx="5.0507627"
       sodipodi:ry="5.0507627"
       d="m 154.55334,379.60059 a 5.0507627,5.0507627 0 1 1 -10.10152,0 5.0507627,5.0507627 0 1 1 10.10152,0 z"
       transform="matrix(0.53238298,0,0,0.53238298,426.4788,83.126433)" />
    <path
       sodipodi:type="arc"
       style="fill:#000000;fill-opacity:1;fill-rule:nonzero;stroke:#000000;stroke-width:1;stroke-miterlimit:4;stroke-opacity:1;stroke-dasharray:none"
       id="path2986-62"
       sodipodi:cx="149.50258"
       sodipodi:cy="379.60059"
       sodipodi:rx="5.0507627"
       sodipodi:ry="5.0507627"
       d="m 154.55334,379.60059 a 5.0507627,5.0507627 0 1 1 -10.10152,0 5.0507627,5.0507627 0 1 1 10.10152,0 z"
       transform="matrix(0.53238298,0,0,0.53238298,437.55023,73.840719)" />
    <path
       sodipodi:type="arc"
       style="fill:#000000;fill-opacity:1;fill-rule:nonzero;stroke:#000000;stroke-width:1;stroke-miterlimit:4;stroke-opacity:1;stroke-dasharray:none"
       id="path2986"
       sodipodi:cx="149.50258"
       sodipodi:cy="379.60059"
       sodipodi:rx="5.0507627"
       sodipodi:ry="5.0507627"
       d="m 154.55334,379.60059 a 5.0507627,5.0507627 0 1 1 -10.10152,0 5.0507627,5.0507627 0 1 1 10.10152,0 z"
       transform="matrix(0.53238298,0,0,0.53238298,355.76452,155.26929)" />
    <path
       sodipodi:type="arc"
       style="fill:#000000;fill-opacity:1;fill-rule:nonzero;stroke:#000000;stroke-width:1;stroke-miterlimit:4;stroke-opacity:1;stroke-dasharray:none"
       id="path2986-5"
       sodipodi:cx="149.50258"
       sodipodi:cy="379.60059"
       sodipodi:rx="5.0507627"
       sodipodi:ry="5.0507627"
       d="m 154.55334,379.60059 a 5.0507627,5.0507627 0 1 1 -10.10152,0 5.0507627,5.0507627 0 1 1 10.10152,0 z"
       transform="matrix(0.53238298,0,0,0.53238298,353.62166,163.12643)" />
    <path
       sodipodi:type="arc"
       style="fill:#000000;fill-opacity:1;fill-rule:nonzero;stroke:#000000;stroke-width:1;stroke-miterlimit:4;stroke-opacity:1;stroke-dasharray:none"
       id="path2986-475"
       sodipodi:cx="149.50258"
       sodipodi:cy="379.60059"
       sodipodi:rx="5.0507627"
       sodipodi:ry="5.0507627"
       d="m 154.55334,379.60059 a 5.0507627,5.0507627 0 1 1 -10.10152,0 5.0507627,5.0507627 0 1 1 10.10152,0 z"
       transform="matrix(0.53238298,0,0,0.53238298,335.40737,167.76929)" />
    <path
       sodipodi:type="arc"
       style="fill:#000000;fill-opacity:1;fill-rule:nonzero;stroke:#000000;stroke-width:1;stroke-miterlimit:4;stroke-opacity:1;stroke-dasharray:none"
       id="path2986-26"
       sodipodi:cx="149.50258"
       sodipodi:cy="379.60059"
       sodipodi:rx="5.0507627"
       sodipodi:ry="5.0507627"
       d="m 154.55334,379.60059 a 5.0507627,5.0507627 0 1 1 -10.10152,0 5.0507627,5.0507627 0 1 1 10.10152,0 z"
       transform="matrix(0.53238298,0,0,0.53238298,316.83594,184.19786)" />
    <path
       sodipodi:type="arc"
       style="fill:#000000;fill-opacity:1;fill-rule:nonzero;stroke:#000000;stroke-width:1;stroke-miterlimit:4;stroke-opacity:1;stroke-dasharray:none"
       id="path2986-85"
       sodipodi:cx="149.50258"
       sodipodi:cy="379.60059"
       sodipodi:rx="5.0507627"
       sodipodi:ry="5.0507627"
       d="m 154.55334,379.60059 a 5.0507627,5.0507627 0 1 1 -10.10152,0 5.0507627,5.0507627 0 1 1 10.10152,0 z"
       transform="matrix(0.53238298,0,0,0.53238298,329.33594,178.48358)" />
    <path
       sodipodi:type="arc"
       style="fill:#000000;fill-opacity:1;fill-rule:nonzero;stroke:#000000;stroke-width:1;stroke-miterlimit:4;stroke-opacity:1;stroke-dasharray:none"
       id="path2986-68"
       sodipodi:cx="149.50258"
       sodipodi:cy="379.60059"
       sodipodi:rx="5.0507627"
       sodipodi:ry="5.0507627"
       d="m 154.55334,379.60059 a 5.0507627,5.0507627 0 1 1 -10.10152,0 5.0507627,5.0507627 0 1 1 10.10152,0 z"
       transform="matrix(0.53238298,0,0,0.53238298,308.26452,190.98358)" />
    <path
       sodipodi:type="arc"
       style="fill:#000000;fill-opacity:1;fill-rule:nonzero;stroke:#000000;stroke-width:1;stroke-miterlimit:4;stroke-opacity:1;stroke-dasharray:none"
       id="path2986-39"
       sodipodi:cx="149.50258"
       sodipodi:cy="379.60059"
       sodipodi:rx="5.0507627"
       sodipodi:ry="5.0507627"
       d="m 154.55334,379.60059 a 5.0507627,5.0507627 0 1 1 -10.10152,0 5.0507627,5.0507627 0 1 1 10.10152,0 z"
       transform="matrix(0.53238298,0,0,0.53238298,297.57561,198.53434)" />
    <path
       sodipodi:type="arc"
       style="fill:#000000;fill-opacity:1;fill-rule:nonzero;stroke:#000000;stroke-width:1;stroke-miterlimit:4;stroke-opacity:1;stroke-dasharray:none"
       id="path2986-623"
       sodipodi:cx="149.50258"
       sodipodi:cy="379.60059"
       sodipodi:rx="5.0507627"
       sodipodi:ry="5.0507627"
       d="m 154.55334,379.60059 a 5.0507627,5.0507627 0 1 1 -10.10152,0 5.0507627,5.0507627 0 1 1 10.10152,0 z"
       transform="matrix(0.53238298,0,0,0.53238298,272.88199,208.24898)" />
    <path
       sodipodi:type="arc"
       style="fill:#000000;fill-opacity:1;fill-rule:nonzero;stroke:#000000;stroke-width:1;stroke-miterlimit:4;stroke-opacity:1;stroke-dasharray:none"
       id="path2986-858"
       sodipodi:cx="149.50258"
       sodipodi:cy="379.60059"
       sodipodi:rx="5.0507627"
       sodipodi:ry="5.0507627"
       d="m 154.55334,379.60059 a 5.0507627,5.0507627 0 1 1 -10.10152,0 5.0507627,5.0507627 0 1 1 10.10152,0 z"
       transform="matrix(0.53238298,0,0,0.53238298,256.4788,217.055)" />
    <path
       sodipodi:type="arc"
       style="fill:#000000;fill-opacity:1;fill-rule:nonzero;stroke:#000000;stroke-width:1;stroke-miterlimit:4;stroke-opacity:1;stroke-dasharray:none"
       id="path2986-65"
       sodipodi:cx="149.50258"
       sodipodi:cy="379.60059"
       sodipodi:rx="5.0507627"
       sodipodi:ry="5.0507627"
       d="m 154.55334,379.60059 a 5.0507627,5.0507627 0 1 1 -10.10152,0 5.0507627,5.0507627 0 1 1 10.10152,0 z"
       transform="matrix(0.53238298,0,0,0.53238298,243.26451,229.555)" />
    <path
       sodipodi:type="arc"
       style="fill:#000000;fill-opacity:1;fill-rule:nonzero;stroke:#000000;stroke-width:1;stroke-miterlimit:4;stroke-opacity:1;stroke-dasharray:none"
       id="path2986-59"
       sodipodi:cx="149.50258"
       sodipodi:cy="379.60059"
       sodipodi:rx="5.0507627"
       sodipodi:ry="5.0507627"
       d="m 154.55334,379.60059 a 5.0507627,5.0507627 0 1 1 -10.10152,0 5.0507627,5.0507627 0 1 1 10.10152,0 z"
       transform="matrix(0.53238298,0,0,0.53238298,226.83594,234.91215)" />
    <path
       sodipodi:type="arc"
       style="fill:#000000;fill-opacity:1;fill-rule:nonzero;stroke:#000000;stroke-width:1;stroke-miterlimit:4;stroke-opacity:1;stroke-dasharray:none"
       id="path2986-09"
       sodipodi:cx="149.50258"
       sodipodi:cy="379.60059"
       sodipodi:rx="5.0507627"
       sodipodi:ry="5.0507627"
       d="m 154.55334,379.60059 a 5.0507627,5.0507627 0 1 1 -10.10152,0 5.0507627,5.0507627 0 1 1 10.10152,0 z"
       transform="matrix(0.53238298,0,0,0.53238298,218.62166,243.12643)" />
    <path
       sodipodi:type="arc"
       style="fill:#000000;fill-opacity:1;fill-rule:nonzero;stroke:#000000;stroke-width:1;stroke-miterlimit:4;stroke-opacity:1;stroke-dasharray:none"
       id="path2986-84"
       sodipodi:cx="149.50258"
       sodipodi:cy="379.60059"
       sodipodi:rx="5.0507627"
       sodipodi:ry="5.0507627"
       d="m 154.55334,379.60059 a 5.0507627,5.0507627 0 1 1 -10.10152,0 5.0507627,5.0507627 0 1 1 10.10152,0 z"
       transform="matrix(0.53238298,0,0,0.53238298,227.55023,249.555)" />
    <path
       sodipodi:type="arc"
       style="fill:#000000;fill-opacity:1;fill-rule:nonzero;stroke:#000000;stroke-width:1;stroke-miterlimit:4;stroke-opacity:1;stroke-dasharray:none"
       id="path2986-58"
       sodipodi:cx="149.50258"
       sodipodi:cy="379.60059"
       sodipodi:rx="5.0507627"
       sodipodi:ry="5.0507627"
       d="m 154.55334,379.60059 a 5.0507627,5.0507627 0 1 1 -10.10152,0 5.0507627,5.0507627 0 1 1 10.10152,0 z"
       transform="matrix(0.53238298,0,0,0.53238298,228.9788,258.48358)" />
    <path
       sodipodi:type="arc"
       style="fill:#000000;fill-opacity:1;fill-rule:nonzero;stroke:#000000;stroke-width:1;stroke-miterlimit:4;stroke-opacity:1;stroke-dasharray:none"
       id="path2986-376"
       sodipodi:cx="149.50258"
       sodipodi:cy="379.60059"
       sodipodi:rx="5.0507627"
       sodipodi:ry="5.0507627"
       d="m 154.55334,379.60059 a 5.0507627,5.0507627 0 1 1 -10.10152,0 5.0507627,5.0507627 0 1 1 10.10152,0 z"
       transform="matrix(0.53238298,0,0,0.53238298,224.33594,270.62643)" />
    <path
       sodipodi:type="arc"
       style="fill:#000000;fill-opacity:1;fill-rule:nonzero;stroke:#000000;stroke-width:1;stroke-miterlimit:4;stroke-opacity:1;stroke-dasharray:none"
       id="path2986-30"
       sodipodi:cx="149.50258"
       sodipodi:cy="379.60059"
       sodipodi:rx="5.0507627"
       sodipodi:ry="5.0507627"
       d="m 154.55334,379.60059 a 5.0507627,5.0507627 0 1 1 -10.10152,0 5.0507627,5.0507627 0 1 1 10.10152,0 z"
       transform="matrix(0.53238298,0,0,0.53238298,235.05023,265.62643)" />
    <path
       sodipodi:type="arc"
       style="fill:#000000;fill-opacity:1;fill-rule:nonzero;stroke:#000000;stroke-width:1;stroke-miterlimit:4;stroke-opacity:1;stroke-dasharray:none"
       id="path2986-08"
       sodipodi:cx="149.50258"
       sodipodi:cy="379.60059"
       sodipodi:rx="5.0507627"
       sodipodi:ry="5.0507627"
       d="m 154.55334,379.60059 a 5.0507627,5.0507627 0 1 1 -10.10152,0 5.0507627,5.0507627 0 1 1 10.10152,0 z"
       transform="matrix(0.53238298,0,0,0.53238298,217.19309,276.69786)" />
    <path
       sodipodi:type="arc"
       style="fill:#000000;fill-opacity:1;fill-rule:nonzero;stroke:#000000;stroke-width:1;stroke-miterlimit:4;stroke-opacity:1;stroke-dasharray:none"
       id="path2986-88"
       sodipodi:cx="149.50258"
       sodipodi:cy="379.60059"
       sodipodi:rx="5.0507627"
       sodipodi:ry="5.0507627"
       d="m 154.55334,379.60059 a 5.0507627,5.0507627 0 1 1 -10.10152,0 5.0507627,5.0507627 0 1 1 10.10152,0 z"
       transform="matrix(0.53238298,0,0,0.53238298,205.05023,280.98358)" />
    <path
       sodipodi:type="arc"
       style="fill:#000000;fill-opacity:1;fill-rule:nonzero;stroke:#000000;stroke-width:1;stroke-miterlimit:4;stroke-opacity:1;stroke-dasharray:none"
       id="path2986-35"
       sodipodi:cx="149.50258"
       sodipodi:cy="379.60059"
       sodipodi:rx="5.0507627"
       sodipodi:ry="5.0507627"
       d="m 154.55334,379.60059 a 5.0507627,5.0507627 0 1 1 -10.10152,0 5.0507627,5.0507627 0 1 1 10.10152,0 z"
       transform="matrix(0.53238298,0,0,0.53238298,197.19309,291.34072)" />
    <path
       sodipodi:type="arc"
       style="fill:#000000;fill-opacity:1;fill-rule:nonzero;stroke:#000000;stroke-width:1;stroke-miterlimit:4;stroke-opacity:1;stroke-dasharray:none"
       id="path2986-200"
       sodipodi:cx="149.50258"
       sodipodi:cy="379.60059"
       sodipodi:rx="5.0507627"
       sodipodi:ry="5.0507627"
       d="m 154.55334,379.60059 a 5.0507627,5.0507627 0 1 1 -10.10152,0 5.0507627,5.0507627 0 1 1 10.10152,0 z"
       transform="matrix(0.53238298,0,0,0.53238298,181.83594,296.34072)" />
    <path
       sodipodi:type="arc"
       style="fill:#000000;fill-opacity:1;fill-rule:nonzero;stroke:#000000;stroke-width:1;stroke-miterlimit:4;stroke-opacity:1;stroke-dasharray:none"
       id="path2986-53"
       sodipodi:cx="149.50258"
       sodipodi:cy="379.60059"
       sodipodi:rx="5.0507627"
       sodipodi:ry="5.0507627"
       d="m 154.55334,379.60059 a 5.0507627,5.0507627 0 1 1 -10.10152,0 5.0507627,5.0507627 0 1 1 10.10152,0 z"
       transform="matrix(0.53238298,0,0,0.53238298,161.12166,308.84072)" />
    <path
       sodipodi:type="arc"
       style="fill:#000000;fill-opacity:1;fill-rule:nonzero;stroke:#000000;stroke-width:1;stroke-miterlimit:4;stroke-opacity:1;stroke-dasharray:none"
       id="path2986-098"
       sodipodi:cx="149.50258"
       sodipodi:cy="379.60059"
       sodipodi:rx="5.0507627"
       sodipodi:ry="5.0507627"
       d="m 154.55334,379.60059 a 5.0507627,5.0507627 0 1 1 -10.10152,0 5.0507627,5.0507627 0 1 1 10.10152,0 z"
       transform="matrix(0.53238298,0,0,0.53238298,152.19309,317.76929)" />
    <path
       sodipodi:type="arc"
       style="fill:#000000;fill-opacity:1;fill-rule:nonzero;stroke:#000000;stroke-width:1;stroke-miterlimit:4;stroke-opacity:1;stroke-dasharray:none"
       id="path2986-23"
       sodipodi:cx="149.50258"
       sodipodi:cy="379.60059"
       sodipodi:rx="5.0507627"
       sodipodi:ry="5.0507627"
       d="m 154.55334,379.60059 a 5.0507627,5.0507627 0 1 1 -10.10152,0 5.0507627,5.0507627 0 1 1 10.10152,0 z"
       transform="matrix(0.53238298,0,0,0.53238298,138.62166,324.19786)" />
    <path
       sodipodi:type="arc"
       style="fill:#000000;fill-opacity:1;fill-rule:nonzero;stroke:#000000;stroke-width:1;stroke-miterlimit:4;stroke-opacity:1;stroke-dasharray:none"
       id="path2986-07"
       sodipodi:cx="149.50258"
       sodipodi:cy="379.60059"
       sodipodi:rx="5.0507627"
       sodipodi:ry="5.0507627"
       d="m 154.55334,379.60059 a 5.0507627,5.0507627 0 1 1 -10.10152,0 5.0507627,5.0507627 0 1 1 10.10152,0 z"
       transform="matrix(0.53238298,0,0,0.53238298,127.55023,329.555)" />
    <path
       sodipodi:type="arc"
       style="fill:#000000;fill-opacity:1;fill-rule:nonzero;stroke:#000000;stroke-width:1;stroke-miterlimit:4;stroke-opacity:1;stroke-dasharray:none"
       id="path2986-06"
       sodipodi:cx="149.50258"
       sodipodi:cy="379.60059"
       sodipodi:rx="5.0507627"
       sodipodi:ry="5.0507627"
       d="m 154.55334,379.60059 a 5.0507627,5.0507627 0 1 1 -10.10152,0 5.0507627,5.0507627 0 1 1 10.10152,0 z"
       transform="matrix(0.53238298,0,0,0.53238298,116.4788,335.26929)" />
    <path
       sodipodi:type="arc"
       style="fill:#000000;fill-opacity:1;fill-rule:nonzero;stroke:#000000;stroke-width:1;stroke-miterlimit:4;stroke-opacity:1;stroke-dasharray:none"
       id="path2986-12"
       sodipodi:cx="149.50258"
       sodipodi:cy="379.60059"
       sodipodi:rx="5.0507627"
       sodipodi:ry="5.0507627"
       d="m 154.55334,379.60059 a 5.0507627,5.0507627 0 1 1 -10.10152,0 5.0507627,5.0507627 0 1 1 10.10152,0 z"
       transform="matrix(0.53238298,0,0,0.53238298,108.9788,344.91215)" />
    <path
       sodipodi:type="arc"
       style="fill:#000000;fill-opacity:1;fill-rule:nonzero;stroke:#000000;stroke-width:1;stroke-miterlimit:4;stroke-opacity:1;stroke-dasharray:none"
       id="path2986-953"
       sodipodi:cx="149.50258"
       sodipodi:cy="379.60059"
       sodipodi:rx="5.0507627"
       sodipodi:ry="5.0507627"
       d="m 154.55334,379.60059 a 5.0507627,5.0507627 0 1 1 -10.10152,0 5.0507627,5.0507627 0 1 1 10.10152,0 z"
       transform="matrix(0.53238298,0,0,0.53238298,93.9788,351.69786)" />
    <path
       sodipodi:type="arc"
       style="fill:#000000;fill-opacity:1;fill-rule:nonzero;stroke:#000000;stroke-width:1;stroke-miterlimit:4;stroke-opacity:1;stroke-dasharray:none"
       id="path2986-57"
       sodipodi:cx="149.50258"
       sodipodi:cy="379.60059"
       sodipodi:rx="5.0507627"
       sodipodi:ry="5.0507627"
       d="m 154.55334,379.60059 a 5.0507627,5.0507627 0 1 1 -10.10152,0 5.0507627,5.0507627 0 1 1 10.10152,0 z"
       transform="matrix(0.53238298,0,0,0.53238298,80.764515,359.555)" />
    <path
       sodipodi:type="arc"
       style="fill:#000000;fill-opacity:1;fill-rule:nonzero;stroke:#000000;stroke-width:1;stroke-miterlimit:4;stroke-opacity:1;stroke-dasharray:none"
       id="path2986-61"
       sodipodi:cx="149.50258"
       sodipodi:cy="379.60059"
       sodipodi:rx="5.0507627"
       sodipodi:ry="5.0507627"
       d="m 154.55334,379.60059 a 5.0507627,5.0507627 0 1 1 -10.10152,0 5.0507627,5.0507627 0 1 1 10.10152,0 z"
       transform="matrix(0.53238298,0,0,0.53238298,83.9788,367.76929)" />
    <path
       sodipodi:type="arc"
       style="fill:#000000;fill-opacity:1;fill-rule:nonzero;stroke:#000000;stroke-width:1;stroke-miterlimit:4;stroke-opacity:1;stroke-dasharray:none"
       id="path2986-592"
       sodipodi:cx="149.50258"
       sodipodi:cy="379.60059"
       sodipodi:rx="5.0507627"
       sodipodi:ry="5.0507627"
       d="m 154.55334,379.60059 a 5.0507627,5.0507627 0 1 1 -10.10152,0 5.0507627,5.0507627 0 1 1 10.10152,0 z"
       transform="matrix(0.53238298,0,0,0.53238298,91.835943,375.26929)" />
    <path
       sodipodi:type="arc"
       style="fill:#000000;fill-opacity:1;fill-rule:nonzero;stroke:#000000;stroke-width:1;stroke-miterlimit:4;stroke-opacity:1;stroke-dasharray:none"
       id="path2986-1-4"
       sodipodi:cx="149.50258"
       sodipodi:cy="379.60059"
       sodipodi:rx="5.0507627"
       sodipodi:ry="5.0507627"
       d="m 154.55334,379.60059 a 5.0507627,5.0507627 0 1 1 -10.10152,0 5.0507627,5.0507627 0 1 1 10.10152,0 z"
       transform="matrix(0.53238298,0,0,0.53238298,286.4091,203.77166)" />
    <path
       sodipodi:type="arc"
       style="fill:#00ff00;fill-opacity:1;fill-rule:nonzero;stroke:#00ff00;stroke-width:1;stroke-miterlimit:4;stroke-opacity:1;stroke-dasharray:none"
       id="path2986-1-4-6"
       sodipodi:cx="149.50258"
       sodipodi:cy="379.60059"
       sodipodi:rx="5.0507627"
       sodipodi:ry="5.0507627"
       d="m 154.55334,379.60059 a 5.0507627,5.0507627 0 1 1 -10.10152,0 5.0507627,5.0507627 0 1 1 10.10152,0 z"
       transform="matrix(0.53238298,0,0,0.53238298,222.76949,247.20822)" />
    <path
       sodipodi:type="arc"
       style="fill:#00ff00;fill-opacity:1;fill-rule:nonzero;stroke:#00ff00;stroke-width:1;stroke-miterlimit:4;stroke-opacity:1;stroke-dasharray:none"
       id="path2986-1-4-6-0"
       sodipodi:cx="149.50258"
       sodipodi:cy="379.60059"
       sodipodi:rx="5.0507627"
       sodipodi:ry="5.0507627"
       d="m 154.55334,379.60059 a 5.0507627,5.0507627 0 1 1 -10.10152,0 5.0507627,5.0507627 0 1 1 10.10152,0 z"
       transform="matrix(0.53238298,0,0,0.53238298,167.2111,305.03946)" />
    <path
       sodipodi:type="arc"
       style="fill:#000000;fill-opacity:0;fill-rule:nonzero;stroke:#0000ff;stroke-width:0.22668721;stroke-miterlimit:4;stroke-opacity:1;stroke-dasharray:none"
       id="path4447-7"
       sodipodi:cx="443.75"
       sodipodi:cy="344.14789"
       sodipodi:rx="22.678572"
       sodipodi:ry="22.678572"
       d="m 466.42857,344.14789 a 22.678572,22.678572 0 1 1 -45.35714,0 22.678572,22.678572 0 1 1 45.35714,0 z"
       transform="matrix(4.4113648,0,0,4.4113648,-1655.0025,-1068.8608)" />
    <path
       sodipodi:type="arc"
       style="fill:#000000;fill-opacity:0;fill-rule:nonzero;stroke:#0000ff;stroke-width:0.22668721;stroke-miterlimit:4;stroke-opacity:1;stroke-dasharray:none"
       id="path4447-7-2"
       sodipodi:cx="443.75"
       sodipodi:cy="344.14789"
       sodipodi:rx="22.678572"
       sodipodi:ry="22.678572"
       d="m 466.42857,344.14789 a 22.678572,22.678572 0 1 1 -45.35714,0 22.678572,22.678572 0 1 1 45.35714,0 z"
       transform="matrix(4.4113648,0,0,4.4113648,-1710.4003,-1011.514)" />
    <path
       sodipodi:type="arc"
       style="fill:#000000;fill-opacity:0;fill-rule:nonzero;stroke:#0000ff;stroke-width:0.22668721;stroke-miterlimit:4;stroke-opacity:1;stroke-dasharray:none"
       id="path4447-7-4"
       sodipodi:cx="443.75"
       sodipodi:cy="344.14789"
       sodipodi:rx="22.678572"
       sodipodi:ry="22.678572"
       d="m 466.42857,344.14789 a 22.678572,22.678572 0 1 1 -45.35714,0 22.678572,22.678572 0 1 1 45.35714,0 z"
       transform="matrix(4.4113648,0,0,4.4113648,-1512.5431,-1174.3711)" />
    <path
       style="fill:none;stroke:#ff0000;stroke-width:1px;stroke-linecap:butt;stroke-linejoin:miter;stroke-opacity:1"
       d="M 339.91633,448.29096 147.98735,567.99404"
       id="path4692"
       inkscape:connector-curvature="0" />
    <path
       style="fill:none;stroke:#ff0000;stroke-width:1px;stroke-linecap:butt;stroke-linejoin:miter;stroke-opacity:1"
       d="M 226.77924,534.659 393.95949,373.03459"
       id="path4694"
       inkscape:connector-curvature="0" />
    <path
       style="fill:none;stroke:#ff0000;stroke-width:1px;stroke-linecap:butt;stroke-linejoin:miter;stroke-opacity:1"
       d="M 360.11938,421.52191 523.7641,263.43304"
       id="path4696"
       inkscape:connector-curvature="0" />
  </g>
</svg>
